<?xml version="1.0" encoding="UTF-8"?>
<svg version="1.1" xmlns="http://www.w3.org/2000/svg" width="830" height="568">
<path d="M0 0 C273.9 0 547.8 0 830 0 C830 187.44 830 374.88 830 568 C556.1 568 282.2 568 0 568 C0 380.56 0 193.12 0 0 Z " fill="#000000" transform="translate(0,0)"/>
<path d="M0 0 C132 0 264 0 400 0 C400 0.33 400 0.66 400 1 C399.2972998 1.03963867 398.59459961 1.07927734 397.87060547 1.12011719 C339.07234939 4.58052504 283.58284001 24.1641677 238 62 C237.03707031 62.77730469 236.07414063 63.55460937 235.08203125 64.35546875 C227.01787024 70.97541295 219.57673576 78.20907756 212.1875 85.5625 C211.69972076 86.04510284 211.21194153 86.52770569 210.7093811 87.02493286 C204.01038322 93.66782972 197.85741336 100.60215126 192 108 C190.62618865 109.68846784 189.25135041 111.37610123 187.875 113.0625 C180.83785072 121.90761253 174.75707572 131.28109326 169 141 C168.42958984 141.95011963 168.42958984 141.95011963 167.84765625 142.91943359 C134.76293872 198.41769132 123.4551831 269.49234186 135 333 C135.17692383 333.99644531 135.35384766 334.99289062 135.53613281 336.01953125 C140.75123838 364.66207997 150.01985929 392.40229307 164 418 C164.5885376 419.09223877 164.5885376 419.09223877 165.18896484 420.20654297 C174.81672406 437.9363917 186.68290481 453.88216553 200 469 C201.01320312 470.17949219 201.01320312 470.17949219 202.046875 471.3828125 C212.96639939 483.8683152 224.79826137 495.93589432 238 506 C238.97582031 506.78117187 239.95164063 507.56234375 240.95703125 508.3671875 C277.84902019 537.74819807 322.56896144 556.61055966 369 564 C370.08039551 564.18022705 371.16079102 564.3604541 372.27392578 564.54614258 C384.14487276 566.29627628 395.97754547 566.33804763 407.95996094 566.31567383 C411.46581653 566.31253065 414.97081155 566.33599187 418.4765625 566.36132812 C433.53712913 566.40361784 448.11820277 565.29147682 463 563 C464.84803223 562.72579224 464.84803223 562.72579224 466.73339844 562.44604492 C489.73903944 558.78571893 513.1234493 551.36749911 534 541 C534.8451416 540.58556641 535.6902832 540.17113281 536.56103516 539.74414062 C555.63474562 530.31862348 573.43978709 519.37033584 590 506 C590.88171875 505.31035156 591.7634375 504.62070312 592.671875 503.91015625 C608.94669897 490.98178277 622.99730755 476.16422462 636 460 C636.63292969 459.2471875 637.26585937 458.494375 637.91796875 457.71875 C668.05656081 421.42815667 686.29914598 376.19852525 694 330 C694.17644043 328.96085449 694.35288086 327.92170898 694.53466797 326.85107422 C699.27056516 297.60491424 698.71259479 266.21252165 694 237 C693.75056641 235.44684082 693.75056641 235.44684082 693.49609375 233.86230469 C688.47981821 203.88541362 678.24476 175.77699604 664 149 C663.53110352 148.11803955 663.53110352 148.11803955 663.05273438 147.21826172 C646.80764379 117.02358248 622.63343406 87.3680402 595.68359375 66.12890625 C592.86290525 63.89124215 590.15964334 61.54370363 587.4375 59.1875 C559.0589342 35.58733024 524.4014872 19.60371729 489 10 C488.08025391 9.74637695 487.16050781 9.49275391 486.21289062 9.23144531 C467.51805578 4.157133 448.32496476 1.89811535 429 1 C429 0.67 429 0.34 429 0 C561.33 0 693.66 0 830 0 C830 187.44 830 374.88 830 568 C556.1 568 282.2 568 0 568 C0 380.56 0 193.12 0 0 Z " fill="#FAFAFA" transform="translate(0,0)"/>
<path d="M0 0 C13.95651461 12.11085368 21.94763774 28.00266001 26.1875 45.8125 C26.45706009 46.91706039 26.72662018 48.02162079 27.00434875 49.15965271 C29.91938864 63.06668931 29.57785032 77.04798073 29.49168181 91.19083714 C29.47268456 94.84493493 29.47114671 98.49904343 29.46760559 102.15318298 C29.45835177 109.04463399 29.43383026 115.93593898 29.40355712 122.82732624 C29.36346821 132.15955067 29.34750427 141.4918162 29.33005047 150.82410526 C29.3020027 165.48701248 29.2421896 180.14961184 29.1875 194.8125 C4.4375 194.8125 -20.3125 194.8125 -45.8125 194.8125 C-45.84988281 186.14484375 -45.88726563 177.4771875 -45.92578125 168.546875 C-45.95992789 162.34096023 -45.99592305 156.13507765 -46.03457737 149.92919159 C-46.08434289 141.90007718 -46.12981786 133.87101557 -46.15893555 125.84179688 C-46.18201206 119.48230114 -46.21551639 113.12295741 -46.26120156 106.76358247 C-46.28500499 103.40071313 -46.3022611 100.03813016 -46.31011391 96.67516327 C-46.31979763 92.90789203 -46.34790934 89.14116042 -46.38012695 85.37402344 C-46.37869186 84.27637665 -46.37725677 83.17872986 -46.3757782 82.04782104 C-46.53271019 68.9929702 -49.65100804 56.52923389 -58.8125 46.8125 C-68.32185403 39.29347588 -79.13704614 38.62744143 -90.8125 39.8125 C-100.22709109 41.67064298 -107.04454527 47.94174279 -112.78199768 55.35842896 C-119.87665752 67.21537137 -118.81343694 80.25657937 -118.72418666 93.67508078 C-118.70839411 97.1691624 -118.73249934 100.66298286 -118.75209045 104.15701294 C-118.78314619 110.75116356 -118.77912943 117.34479108 -118.76201588 123.93897355 C-118.74250564 132.19509032 -118.77069474 140.45096295 -118.79882812 148.70703125 C-118.84871946 163.40911619 -118.82735099 178.11002187 -118.8125 192.8125 C-142.9025 192.8125 -166.9925 192.8125 -191.8125 192.8125 C-191.8125 153.7233526 -191.8125 153.7233526 -191.72070312 139.07177734 C-191.71076619 137.36235095 -191.70091746 135.65292405 -191.69114685 133.9434967 C-191.66516671 129.43944998 -191.63800286 124.9354112 -191.61057091 120.43137312 C-191.58181363 115.67362355 -191.55422186 110.9158672 -191.52648926 106.15811157 C-191.47416086 97.20962411 -191.42083368 88.2611429 -191.3671174 79.31266367 C-191.30585887 69.09925676 -191.24575986 58.88584312 -191.18574238 48.67242885 C-191.06258843 27.71911161 -190.93787704 6.76580406 -190.8125 -14.1875 C-167.0525 -14.1875 -143.2925 -14.1875 -118.8125 -14.1875 C-118.3175 0.1675 -118.3175 0.1675 -117.8125 14.8125 C-115.8325 11.8425 -113.8525 8.8725 -111.8125 5.8125 C-84.04540128 -25.76576913 -31.66968626 -24.10611594 0 0 Z " fill="#FDFDFD" transform="translate(561.8125,233.1875)"/>
<path d="M0 0 C105.93 0 211.86 0 321 0 C321 9.9 321 19.8 321 30 C330.9 30 340.8 30 351 30 C351 39.9 351 49.8 351 60 C341.1 60 331.2 60 321 60 C321 69.9 321 79.8 321 90 C311.1 90 301.2 90 291 90 C291 99.9 291 109.8 291 120 C300.9 120 310.8 120 321 120 C321 129.9 321 139.8 321 150 C330.57 149.67 340.14 149.34 350 149 C350.33 139.43 350.66 129.86 351 120 C360.9 120 370.8 120 381 120 C381 129.9 381 139.8 381 150 C371.1 150 361.2 150 351 150 C351 159.9 351 169.8 351 180 C341.1 180 331.2 180 321 180 C321 189.9 321 199.8 321 210 C311.1 210 301.2 210 291 210 C291 200.1 291 190.2 291 180 C281.1 180 271.2 180 261 180 C261 170.1 261 160.2 261 150 C257.16375 150.474375 253.3275 150.94875 249.375 151.4375 C243.58382403 151.73585254 238.23622422 151.89084001 233.63525391 148.00048828 C229.35550743 142.49885686 226.45474332 136.23017547 223.48681641 129.95361328 C221.37560741 125.75962208 218.76150442 122.12555231 215.875 118.4375 C215.14579346 117.48883057 215.14579346 117.48883057 214.40185547 116.52099609 C209.17750559 109.80846631 203.62752248 103.37500737 198 97 C197.25363281 96.14148438 196.50726562 95.28296875 195.73828125 94.3984375 C186.79805757 84.25186202 177.31482897 74.50736884 166.68359375 66.12890625 C163.86290525 63.89124215 161.15964334 61.54370363 158.4375 59.1875 C130.0589342 35.58733024 95.4014872 19.60371729 60 10 C59.08025391 9.74637695 58.16050781 9.49275391 57.21289062 9.23144531 C38.51805578 4.157133 19.32496476 1.89811535 0 1 C0 0.67 0 0.34 0 0 Z " fill="#FEFEFE" transform="translate(429,0)"/>
<path d="M0 0 C9.9 0 19.8 0 30 0 C30 9.9 30 19.8 30 30 C39.9 30 49.8 30 60 30 C60 39.9 60 49.8 60 60 C69.9 60 79.8 60 90 60 C90 69.9 90 79.8 90 90 C99.9 90 109.8 90 120 90 C120 99.9 120 109.8 120 120 C110.1 120 100.2 120 90 120 C90 129.9 90 139.8 90 150 C80.1 150 70.2 150 60 150 C60 159.9 60 169.8 60 180 C50.1 180 40.2 180 30 180 C30 189.9 30 199.8 30 210 C20.1 210 10.2 210 0 210 C0 200.1 0 190.2 0 180 C-9.9 180 -19.8 180 -30 180 C-30 170.1 -30 160.2 -30 150 C-20.43 149.67 -10.86 149.34 -1 149 C-0.67 139.43 -0.34 129.86 0 120 C9.9 120 19.8 120 30 120 C30 110.1 30 100.2 30 90 C20.1 90 10.2 90 0 90 C0 80.1 0 70.2 0 60 C-9.9 60 -19.8 60 -30 60 C-30 50.1 -30 40.2 -30 30 C-20.43 29.67 -10.86 29.34 -1 29 C-0.67 19.43 -0.34 9.86 0 0 Z " fill="#FEFEFE" transform="translate(60,0)"/>
<path d="M0 0 C21.45 0 42.9 0 65 0 C65 68.64 65 137.28 65 208 C43.55 208 22.1 208 0 208 C0 139.36 0 70.72 0 0 Z " fill="#FBFCFC" transform="translate(266,220)"/>
<path d="M0 0 C9.9 0 19.8 0 30 0 C30 9.9 30 19.8 30 30 C39.9 30 49.8 30 60 30 C60 39.9 60 49.8 60 60 C69.9 60 79.8 60 90 60 C90 69.9 90 79.8 90 90 C80.1 90 70.2 90 60 90 C60 99.9 60 109.8 60 120 C69.9 120 79.8 120 90 120 C90 129.9 90 139.8 90 150 C80.1 150 70.2 150 60 150 C60 159.9 60 169.8 60 180 C50.1 180 40.2 180 30 180 C30 170.1 30 160.2 30 150 C20.1 150 10.2 150 0 150 C0 159.9 0 169.8 0 180 C-9.9 180 -19.8 180 -30 180 C-30 170.1 -30 160.2 -30 150 C-20.43 149.67 -10.86 149.34 -1 149 C-0.67 139.43 -0.34 129.86 0 120 C9.9 120 19.8 120 30 120 C30 110.1 30 100.2 30 90 C20.1 90 10.2 90 0 90 C0 80.1 0 70.2 0 60 C-9.9 60 -19.8 60 -30 60 C-30 50.1 -30 40.2 -30 30 C-20.43 29.67 -10.86 29.34 -1 29 C-0.67 19.43 -0.34 9.86 0 0 Z " fill="#FEFEFE" transform="translate(60,360)"/>
<path d="M0 0 C7.34435911 6.04282711 11.98152053 13.81256911 13.5625 23.1875 C14.50124316 33.79068093 12.65918434 43.28154125 6.4375 52.0625 C0.01528689 59.62126682 -9.48021499 64.51352779 -19.37451172 65.3515625 C-33.67659662 66.14155108 -44.69565087 64.01324061 -55.63671875 54.21875 C-62.94459596 46.76228379 -65.55607286 38.51165158 -66 28.1875 C-65.64927053 17.92583456 -61.84685158 9.53646935 -54.73828125 2.16015625 C-39.17814639 -11.18087618 -16.70422554 -11.54742864 0 0 Z " fill="#FBFCFC" transform="translate(321.4375,127.8125)"/>
<path d="M0 0 C9.9 0 19.8 0 30 0 C30 9.9 30 19.8 30 30 C39.9 30 49.8 30 60 30 C60 39.9 60 49.8 60 60 C50.1 60 40.2 60 30 60 C30 69.9 30 79.8 30 90 C20.1 90 10.2 90 0 90 C0 80.1 0 70.2 0 60 C-9.9 60 -19.8 60 -30 60 C-30 50.1 -30 40.2 -30 30 C-20.43 29.67 -10.86 29.34 -1 29 C-0.67 19.43 -0.34 9.86 0 0 Z " fill="#FEFEFE" transform="translate(60,240)"/>
<path d="M0 0 C9.9 0 19.8 0 30 0 C30 9.9 30 19.8 30 30 C39.9 30 49.8 30 60 30 C60 39.9 60 49.8 60 60 C50.1 60 40.2 60 30 60 C30.03959626 69.49892964 30.03959626 69.49892964 30.09008789 78.99780273 C30.09258545 80.17286377 30.09508301 81.3479248 30.09765625 82.55859375 C30.10289307 83.76829834 30.10812988 84.97800293 30.11352539 86.22436523 C30 89 30 89 29 90 C26.85441173 90.08775605 24.70595579 90.10695219 22.55859375 90.09765625 C21.38353271 90.09515869 20.20847168 90.09266113 18.99780273 90.09008789 C17.49290283 90.08098389 15.98800293 90.07187988 14.4375 90.0625 C9.673125 90.041875 4.90875 90.02125 0 90 C0 80.1 0 70.2 0 60 C-9.9 60 -19.8 60 -30 60 C-30 50.1 -30 40.2 -30 30 C-20.1 30 -10.2 30 0 30 C0 20.1 0 10.2 0 0 Z " fill="#FEFEFE" transform="translate(750,420)"/>
<path d="M0 0 C9.9 0 19.8 0 30 0 C30 9.9 30 19.8 30 30 C39.9 30 49.8 30 60 30 C60 39.9 60 49.8 60 60 C50.1 60 40.2 60 30 60 C30.03959626 69.49892964 30.03959626 69.49892964 30.09008789 78.99780273 C30.09258545 80.17286377 30.09508301 81.3479248 30.09765625 82.55859375 C30.10289307 83.76829834 30.10812988 84.97800293 30.11352539 86.22436523 C30 89 30 89 29 90 C26.85441173 90.08775605 24.70595579 90.10695219 22.55859375 90.09765625 C21.38353271 90.09515869 20.20847168 90.09266113 18.99780273 90.09008789 C17.49290283 90.08098389 15.98800293 90.07187988 14.4375 90.0625 C9.673125 90.041875 4.90875 90.02125 0 90 C0 80.1 0 70.2 0 60 C-9.9 60 -19.8 60 -30 60 C-30 50.1 -30 40.2 -30 30 C-20.1 30 -10.2 30 0 30 C0 20.1 0 10.2 0 0 Z " fill="#FEFEFE" transform="translate(750,300)"/>
<path d="M0 0 C9.9 0 19.8 0 30 0 C30 9.9 30 19.8 30 30 C39.9 30 49.8 30 60 30 C60 39.9 60 49.8 60 60 C50.1 60 40.2 60 30 60 C30.03959626 69.49892964 30.03959626 69.49892964 30.09008789 78.99780273 C30.09258545 80.17286377 30.09508301 81.3479248 30.09765625 82.55859375 C30.10289307 83.76829834 30.10812988 84.97800293 30.11352539 86.22436523 C30 89 30 89 29 90 C26.85441173 90.08775605 24.70595579 90.10695219 22.55859375 90.09765625 C21.38353271 90.09515869 20.20847168 90.09266113 18.99780273 90.09008789 C17.49290283 90.08098389 15.98800293 90.07187988 14.4375 90.0625 C9.673125 90.041875 4.90875 90.02125 0 90 C0 80.1 0 70.2 0 60 C-9.9 60 -19.8 60 -30 60 C-30 50.1 -30 40.2 -30 30 C-20.1 30 -10.2 30 0 30 C0 20.1 0 10.2 0 0 Z " fill="#FEFEFE" transform="translate(750,180)"/>
<path d="M0 0 C9.9 0 19.8 0 30 0 C30 9.9 30 19.8 30 30 C39.9 30 49.8 30 60 30 C60 39.9 60 49.8 60 60 C50.1 60 40.2 60 30 60 C30.03959626 69.49892964 30.03959626 69.49892964 30.09008789 78.99780273 C30.09258545 80.17286377 30.09508301 81.3479248 30.09765625 82.55859375 C30.10289307 83.76829834 30.10812988 84.97800293 30.11352539 86.22436523 C30 89 30 89 29 90 C26.85441173 90.08775605 24.70595579 90.10695219 22.55859375 90.09765625 C21.38353271 90.09515869 20.20847168 90.09266113 18.99780273 90.09008789 C17.49290283 90.08098389 15.98800293 90.07187988 14.4375 90.0625 C9.673125 90.041875 4.90875 90.02125 0 90 C0 80.1 0 70.2 0 60 C-9.9 60 -19.8 60 -30 60 C-30 50.1 -30 40.2 -30 30 C-20.1 30 -10.2 30 0 30 C0 20.1 0 10.2 0 0 Z " fill="#FEFEFE" transform="translate(750,60)"/>
<path d="M0 0 C4.19590493 3.59648994 7.97708502 6.88996942 11.75 10.8125 C16.86007917 15.96882423 22.29542862 20.51948645 28 25 C28.98613281 25.79148437 29.97226563 26.58296875 30.98828125 27.3984375 C68.04814489 56.65865363 112.46982635 75.59478244 159 83 C160.08039551 83.18022705 161.16079102 83.3604541 162.27392578 83.54614258 C174.14487276 85.29627628 185.97754547 85.33804763 197.95996094 85.31567383 C201.46581653 85.31253065 204.97081155 85.33599187 208.4765625 85.36132812 C223.53712913 85.40361784 238.11820277 84.29147682 253 82 C254.23202148 81.81719482 255.46404297 81.63438965 256.73339844 81.44604492 C279.99956978 77.7442671 302.70686025 69.98027322 324 60 C325.66137201 59.32024618 327.32612447 58.64835402 329 58 C333.32563419 66.65126837 330 77.32758791 330 87 C240.9 87 151.8 87 60 87 C60 77.76 60 68.52 60 59 C50.1 59 40.2 59 30 59 C30 49.1 30 39.2 30 29 C20.1 29 10.2 29 0 29 C0 19.43 0 9.86 0 0 Z " fill="#E2E2E2" transform="translate(210,481)"/>
<path d="M0 0 C29.7 0 59.4 0 90 0 C90 9.57 90 19.14 90 29 C89 30 89 30 86.22436523 30.11352539 C85.01466064 30.10828857 83.80495605 30.10305176 82.55859375 30.09765625 C81.38353271 30.09515869 80.20847168 30.09266113 78.99780273 30.09008789 C77.49290283 30.08098389 75.98800293 30.07187988 74.4375 30.0625 C69.673125 30.041875 64.90875 30.02125 60 30 C60 39.9 60 49.8 60 60 C50.1 60 40.2 60 30 60 C30 50.1 30 40.2 30 30 C20.1 30 10.2 30 0 30 C0 20.1 0 10.2 0 0 Z " fill="#FEFEFE" transform="translate(570,0)"/>
<path d="M0 0 C29.7 0 59.4 0 90 0 C90 9.57 90 19.14 90 29 C89 30 89 30 86.22436523 30.11352539 C85.01466064 30.10828857 83.80495605 30.10305176 82.55859375 30.09765625 C81.38353271 30.09515869 80.20847168 30.09266113 78.99780273 30.09008789 C77.49290283 30.08098389 75.98800293 30.07187988 74.4375 30.0625 C69.673125 30.041875 64.90875 30.02125 60 30 C60 39.9 60 49.8 60 60 C50.1 60 40.2 60 30 60 C30 50.1 30 40.2 30 30 C20.1 30 10.2 30 0 30 C0 20.1 0 10.2 0 0 Z " fill="#FEFEFE" transform="translate(90,0)"/>
<path d="M0 0 C6.6 0 13.2 0 20 0 C20 29.04 20 58.08 20 88 C13.4 88 6.8 88 0 88 C0 78.76 0 69.52 0 60 C-9.9 60 -19.8 60 -30 60 C-30 50.1 -30 40.2 -30 30 C-20.1 30 -10.2 30 0 30 C0 20.1 0 10.2 0 0 Z " fill="#FEFEFE" transform="translate(810,480)"/>
<path d="M0 0 C42.9 0 85.8 0 130 0 C130 0.33 130 0.66 130 1 C129.2972998 1.03963867 128.59459961 1.07927734 127.87060547 1.12011719 C73.08410424 4.34442436 22.36592597 21.47934553 -22 54 C-28.83772538 59 -28.83772538 59 -30 59 C-30 49.43 -30 39.86 -30 30 C-20.1 30 -10.2 30 0 30 C0 20.1 0 10.2 0 0 Z " fill="#E2E2E2" transform="translate(270,0)"/>
<path d="M0 0 C10.23 0 20.46 0 31 0 C32.216875 2.990625 33.43375 5.98125 34.6875 9.0625 C42.03430112 26.5049242 51.42335661 43.0187296 63 58 C63.42990234 58.56444824 63.85980469 59.12889648 64.30273438 59.71044922 C69.97078953 67.14304855 75.89497047 74.33017205 82.02880859 81.3828125 C84.47217184 84.19321878 86.76203778 87.01605037 89 90 C79.43 90 69.86 90 60 90 C60 80.1 60 70.2 60 60 C50.1 60 40.2 60 30 60 C30 50.1 30 40.2 30 30 C20.1 30 10.2 30 0 30 C0 20.1 0 10.2 0 0 Z " fill="#E2E2E2" transform="translate(120,390)"/>
<path d="M0 0 C8.91 0 17.82 0 27 0 C25.02 2.31 23.04 4.62 21 7 C17.97356672 10.64524009 14.98686285 14.32229813 12 18 C10.95585937 19.27617188 10.95585937 19.27617188 9.890625 20.578125 C2.08294183 30.20154844 -4.70340189 40.3296837 -11 51 C-11.3909082 51.66 -11.78181641 52.32 -12.18457031 53 C-19.20008127 64.9469861 -24.70671738 77.19367109 -30 90 C-39.9 90 -49.8 90 -60 90 C-60 80.1 -60 70.2 -60 60 C-50.1 60 -40.2 60 -30 60 C-30 50.1 -30 40.2 -30 30 C-20.1 30 -10.2 30 0 30 C0 20.1 0 10.2 0 0 Z " fill="#E2E2E2" transform="translate(180,90)"/>
<path d="M0 0 C0 9.9 0 19.8 0 30 C-9.9 30 -19.8 30 -30 30 C-30 39.9 -30 49.8 -30 60 C-39.9 60 -49.8 60 -60 60 C-60 50.1 -60 40.2 -60 30 C-50.43 29.67 -40.86 29.34 -31 29 C-30.67 19.43 -30.34 9.86 -30 0 C-25.7925 -0.185625 -21.585 -0.37125 -17.25 -0.5625 C-15.9290332 -0.62381104 -14.60806641 -0.68512207 -13.24707031 -0.74829102 C-11.67844238 -0.81294556 -11.67844238 -0.81294556 -10.078125 -0.87890625 C-9.00981445 -0.9260376 -7.94150391 -0.97316895 -6.84082031 -1.02172852 C-4 -1 -4 -1 0 0 Z " fill="#FEFEFE" transform="translate(210,480)"/>
<path d="M0 0 C9.9 0 19.8 0 30 0 C30 9.9 30 19.8 30 30 C20.1 30 10.2 30 0 30 C0 39.9 0 49.8 0 60 C-9.9 60 -19.8 60 -30 60 C-30 50.1 -30 40.2 -30 30 C-20.43 29.67 -10.86 29.34 -1 29 C-0.67 19.43 -0.34 9.86 0 0 Z " fill="#FEFEFE" transform="translate(780,480)"/>
<path d="M0 0 C9.9 0 19.8 0 30 0 C30 9.9 30 19.8 30 30 C20.1 30 10.2 30 0 30 C0 39.9 0 49.8 0 60 C-9.9 60 -19.8 60 -30 60 C-30 50.1 -30 40.2 -30 30 C-20.43 29.67 -10.86 29.34 -1 29 C-0.67 19.43 -0.34 9.86 0 0 Z " fill="#FEFEFE" transform="translate(660,480)"/>
<path d="M0 0 C9.9 0 19.8 0 30 0 C30 9.9 30 19.8 30 30 C20.1 30 10.2 30 0 30 C0 39.9 0 49.8 0 60 C-9.9 60 -19.8 60 -30 60 C-30 50.1 -30 40.2 -30 30 C-20.43 29.67 -10.86 29.34 -1 29 C-0.67 19.43 -0.34 9.86 0 0 Z " fill="#FEFEFE" transform="translate(60,480)"/>
<path d="M0 0 C9.9 0 19.8 0 30 0 C30 9.9 30 19.8 30 30 C20.1 30 10.2 30 0 30 C0 39.9 0 49.8 0 60 C-9.9 60 -19.8 60 -30 60 C-30 50.1 -30 40.2 -30 30 C-20.43 29.67 -10.86 29.34 -1 29 C-0.67 19.43 -0.34 9.86 0 0 Z " fill="#FEFEFE" transform="translate(780,360)"/>
<path d="M0 0 C9.9 0 19.8 0 30 0 C30 9.9 30 19.8 30 30 C20.1 30 10.2 30 0 30 C0 39.9 0 49.8 0 60 C-9.9 60 -19.8 60 -30 60 C-30 50.1 -30 40.2 -30 30 C-20.43 29.67 -10.86 29.34 -1 29 C-0.67 19.43 -0.34 9.86 0 0 Z " fill="#FEFEFE" transform="translate(780,240)"/>
<path d="M0 0 C9.9 0 19.8 0 30 0 C30 9.9 30 19.8 30 30 C20.1 30 10.2 30 0 30 C0 39.9 0 49.8 0 60 C-9.9 60 -19.8 60 -30 60 C-30 50.1 -30 40.2 -30 30 C-20.43 29.67 -10.86 29.34 -1 29 C-0.67 19.43 -0.34 9.86 0 0 Z " fill="#FEFEFE" transform="translate(780,120)"/>
<path d="M0 0 C9.9 0 19.8 0 30 0 C30 9.9 30 19.8 30 30 C20.1 30 10.2 30 0 30 C0 39.9 0 49.8 0 60 C-9.9 60 -19.8 60 -30 60 C-30 50.1 -30 40.2 -30 30 C-20.43 29.67 -10.86 29.34 -1 29 C-0.67 19.43 -0.34 9.86 0 0 Z " fill="#FEFEFE" transform="translate(180,0)"/>
<path d="M0 0 C1.32874146 0.06465454 1.32874146 0.06465454 2.68432617 0.13061523 C3.80556885 0.19192627 4.92681152 0.2532373 6.08203125 0.31640625 C9.65015625 0.50203125 13.21828125 0.68765625 16.89453125 0.87890625 C16.89453125 10.77890625 16.89453125 20.67890625 16.89453125 30.87890625 C26.79453125 30.87890625 36.69453125 30.87890625 46.89453125 30.87890625 C46.89453125 40.77890625 46.89453125 50.67890625 46.89453125 60.87890625 C32.51953125 61.31640625 32.51953125 61.31640625 27.98681641 61.44702148 C26.81425293 61.48512939 25.64168945 61.5232373 24.43359375 61.5625 C23.22912598 61.59915771 22.0246582 61.63581543 20.78369141 61.67358398 C17.95456758 61.68943612 17.95456758 61.68943612 15.89453125 62.87890625 C15.60171265 61.86244019 15.60171265 61.86244019 15.30297852 60.82543945 C10.79950136 45.33812644 5.65426538 30.52297056 -1.10546875 15.87890625 C-1.63914062 14.71439941 -1.63914062 14.71439941 -2.18359375 13.52636719 C-4.12610309 9.29524843 -6.09856736 5.07984774 -8.10546875 0.87890625 C-5.02085369 -0.14929877 -3.20861636 -0.16692224 0 0 Z " fill="#E2E2E2" transform="translate(673.10546875,149.12109375)"/>
<path d="M0 0 C4.19590493 3.59648994 7.97708502 6.88996942 11.75 10.8125 C16.86007917 15.96882423 22.29542862 20.51948645 28 25 C28.98613281 25.79148437 29.97226563 26.58296875 30.98828125 27.3984375 C44.92796329 38.4043633 60.10620542 48.05310271 76 56 C76 56.99 76 57.98 76 59 C60.82 59 45.64 59 30 59 C30 49.1 30 39.2 30 29 C20.1 29 10.2 29 0 29 C0 19.43 0 9.86 0 0 Z " fill="#E2E2E2" transform="translate(210,481)"/>
<path d="M0 0 C36.63 0 73.26 0 111 0 C111 8.91 111 17.82 111 27 C110.34 27.33 109.68 27.66 109 28 C106.7512207 27.21484375 106.7512207 27.21484375 103.92578125 25.9375 C102.87737061 25.47359863 101.82895996 25.00969727 100.7487793 24.53173828 C99.61480713 24.02626465 98.48083496 23.52079102 97.3125 23 C85.0878045 17.69664565 72.860001 13.45788068 60 10 C58.68854004 9.64083496 58.68854004 9.64083496 57.35058594 9.27441406 C38.5919577 4.21077836 19.38622734 1.90096249 0 1 C0 0.67 0 0.34 0 0 Z " fill="#E2E2E2" transform="translate(429,0)"/>
<path d="M0 0 C9.9 0 19.8 0 30 0 C30 9.9 30 19.8 30 30 C20.1 30 10.2 30 0 30 C0 20.1 0 10.2 0 0 Z " fill="#E3E3E3" transform="translate(780,510)"/>
<path d="M0 0 C9.9 0 19.8 0 30 0 C30 9.9 30 19.8 30 30 C20.1 30 10.2 30 0 30 C0 20.1 0 10.2 0 0 Z " fill="#E3E3E3" transform="translate(720,510)"/>
<path d="M0 0 C9.9 0 19.8 0 30 0 C30 9.9 30 19.8 30 30 C20.1 30 10.2 30 0 30 C0 20.1 0 10.2 0 0 Z " fill="#FEFEFE" transform="translate(690,510)"/>
<path d="M0 0 C9.9 0 19.8 0 30 0 C30 9.9 30 19.8 30 30 C20.1 30 10.2 30 0 30 C0 20.1 0 10.2 0 0 Z " fill="#E3E3E3" transform="translate(660,510)"/>
<path d="M0 0 C9.9 0 19.8 0 30 0 C30 9.9 30 19.8 30 30 C20.1 30 10.2 30 0 30 C0 20.1 0 10.2 0 0 Z " fill="#E3E3E3" transform="translate(600,510)"/>
<path d="M0 0 C9.9 0 19.8 0 30 0 C30 9.9 30 19.8 30 30 C20.1 30 10.2 30 0 30 C0 20.1 0 10.2 0 0 Z " fill="#FEFEFE" transform="translate(210,510)"/>
<path d="M0 0 C9.9 0 19.8 0 30 0 C30 9.9 30 19.8 30 30 C20.1 30 10.2 30 0 30 C0 20.1 0 10.2 0 0 Z " fill="#E3E3E3" transform="translate(180,510)"/>
<path d="M0 0 C9.9 0 19.8 0 30 0 C30 9.9 30 19.8 30 30 C20.1 30 10.2 30 0 30 C0 20.1 0 10.2 0 0 Z " fill="#E3E3E3" transform="translate(120,510)"/>
<path d="M0 0 C9.9 0 19.8 0 30 0 C30 9.9 30 19.8 30 30 C20.1 30 10.2 30 0 30 C0 20.1 0 10.2 0 0 Z " fill="#FEFEFE" transform="translate(90,510)"/>
<path d="M0 0 C9.9 0 19.8 0 30 0 C30 9.9 30 19.8 30 30 C20.1 30 10.2 30 0 30 C0 20.1 0 10.2 0 0 Z " fill="#E3E3E3" transform="translate(60,510)"/>
<path d="M0 0 C9.9 0 19.8 0 30 0 C30 9.9 30 19.8 30 30 C20.1 30 10.2 30 0 30 C0 20.1 0 10.2 0 0 Z " fill="#FEFEFE" transform="translate(720,480)"/>
<path d="M0 0 C9.9 0 19.8 0 30 0 C30 9.9 30 19.8 30 30 C20.1 30 10.2 30 0 30 C0 20.1 0 10.2 0 0 Z " fill="#E3E3E3" transform="translate(690,480)"/>
<path d="M0 0 C9.9 0 19.8 0 30 0 C30 9.9 30 19.8 30 30 C20.1 30 10.2 30 0 30 C0 20.1 0 10.2 0 0 Z " fill="#FEFEFE" transform="translate(120,480)"/>
<path d="M0 0 C9.9 0 19.8 0 30 0 C30 9.9 30 19.8 30 30 C20.1 30 10.2 30 0 30 C0 20.1 0 10.2 0 0 Z " fill="#E3E3E3" transform="translate(90,480)"/>
<path d="M0 0 C9.9 0 19.8 0 30 0 C30 9.9 30 19.8 30 30 C20.1 30 10.2 30 0 30 C0 20.1 0 10.2 0 0 Z " fill="#FEFEFE" transform="translate(0,480)"/>
<path d="M0 0 C9.9 0 19.8 0 30 0 C30 9.9 30 19.8 30 30 C20.1 30 10.2 30 0 30 C0 20.1 0 10.2 0 0 Z " fill="#E3E3E3" transform="translate(780,450)"/>
<path d="M0 0 C9.9 0 19.8 0 30 0 C30 9.9 30 19.8 30 30 C20.1 30 10.2 30 0 30 C0 20.1 0 10.2 0 0 Z " fill="#E3E3E3" transform="translate(720,450)"/>
<path d="M0 0 C9.9 0 19.8 0 30 0 C30 9.9 30 19.8 30 30 C20.1 30 10.2 30 0 30 C0 20.1 0 10.2 0 0 Z " fill="#FEFEFE" transform="translate(690,450)"/>
<path d="M0 0 C9.9 0 19.8 0 30 0 C30 9.9 30 19.8 30 30 C20.1 30 10.2 30 0 30 C0 20.1 0 10.2 0 0 Z " fill="#E3E3E3" transform="translate(660,450)"/>
<path d="M0 0 C9.9 0 19.8 0 30 0 C30 9.9 30 19.8 30 30 C20.1 30 10.2 30 0 30 C0 20.1 0 10.2 0 0 Z " fill="#E3E3E3" transform="translate(120,450)"/>
<path d="M0 0 C9.9 0 19.8 0 30 0 C30 9.9 30 19.8 30 30 C20.1 30 10.2 30 0 30 C0 20.1 0 10.2 0 0 Z " fill="#FEFEFE" transform="translate(90,450)"/>
<path d="M0 0 C9.9 0 19.8 0 30 0 C30 9.9 30 19.8 30 30 C20.1 30 10.2 30 0 30 C0 20.1 0 10.2 0 0 Z " fill="#E3E3E3" transform="translate(60,450)"/>
<path d="M0 0 C9.9 0 19.8 0 30 0 C30 9.9 30 19.8 30 30 C20.1 30 10.2 30 0 30 C0 20.1 0 10.2 0 0 Z " fill="#E3E3E3" transform="translate(0,450)"/>
<path d="M0 0 C9.9 0 19.8 0 30 0 C30 9.9 30 19.8 30 30 C20.1 30 10.2 30 0 30 C0 20.1 0 10.2 0 0 Z " fill="#FEFEFE" transform="translate(780,420)"/>
<path d="M0 0 C9.9 0 19.8 0 30 0 C30 9.9 30 19.8 30 30 C20.1 30 10.2 30 0 30 C0 20.1 0 10.2 0 0 Z " fill="#E3E3E3" transform="translate(750,420)"/>
<path d="M0 0 C9.9 0 19.8 0 30 0 C30 9.9 30 19.8 30 30 C20.1 30 10.2 30 0 30 C0 20.1 0 10.2 0 0 Z " fill="#FEFEFE" transform="translate(720,420)"/>
<path d="M0 0 C9.9 0 19.8 0 30 0 C30 9.9 30 19.8 30 30 C20.1 30 10.2 30 0 30 C0 20.1 0 10.2 0 0 Z " fill="#E3E3E3" transform="translate(690,420)"/>
<path d="M0 0 C9.9 0 19.8 0 30 0 C30 9.9 30 19.8 30 30 C20.1 30 10.2 30 0 30 C0 20.1 0 10.2 0 0 Z " fill="#FEFEFE" transform="translate(120,420)"/>
<path d="M0 0 C9.9 0 19.8 0 30 0 C30 9.9 30 19.8 30 30 C20.1 30 10.2 30 0 30 C0 20.1 0 10.2 0 0 Z " fill="#E3E3E3" transform="translate(90,420)"/>
<path d="M0 0 C9.9 0 19.8 0 30 0 C30 9.9 30 19.8 30 30 C20.1 30 10.2 30 0 30 C0 20.1 0 10.2 0 0 Z " fill="#FEFEFE" transform="translate(60,420)"/>
<path d="M0 0 C9.9 0 19.8 0 30 0 C30 9.9 30 19.8 30 30 C20.1 30 10.2 30 0 30 C0 20.1 0 10.2 0 0 Z " fill="#E3E3E3" transform="translate(30,420)"/>
<path d="M0 0 C9.9 0 19.8 0 30 0 C30 9.9 30 19.8 30 30 C20.1 30 10.2 30 0 30 C0 20.1 0 10.2 0 0 Z " fill="#FEFEFE" transform="translate(0,420)"/>
<path d="M0 0 C9.9 0 19.8 0 30 0 C30 9.9 30 19.8 30 30 C20.1 30 10.2 30 0 30 C0 20.1 0 10.2 0 0 Z " fill="#E3E3E3" transform="translate(780,390)"/>
<path d="M0 0 C9.9 0 19.8 0 30 0 C30 9.9 30 19.8 30 30 C20.1 30 10.2 30 0 30 C0 20.1 0 10.2 0 0 Z " fill="#E3E3E3" transform="translate(720,390)"/>
<path d="M0 0 C9.9 0 19.8 0 30 0 C30 9.9 30 19.8 30 30 C20.1 30 10.2 30 0 30 C0 20.1 0 10.2 0 0 Z " fill="#FEFEFE" transform="translate(690,390)"/>
<path d="M0 0 C9.9 0 19.8 0 30 0 C30 9.9 30 19.8 30 30 C20.1 30 10.2 30 0 30 C0 20.1 0 10.2 0 0 Z " fill="#FEFEFE" transform="translate(90,390)"/>
<path d="M0 0 C9.9 0 19.8 0 30 0 C30 9.9 30 19.8 30 30 C20.1 30 10.2 30 0 30 C0 20.1 0 10.2 0 0 Z " fill="#E3E3E3" transform="translate(60,390)"/>
<path d="M0 0 C9.9 0 19.8 0 30 0 C30 9.9 30 19.8 30 30 C20.1 30 10.2 30 0 30 C0 20.1 0 10.2 0 0 Z " fill="#E3E3E3" transform="translate(0,390)"/>
<path d="M0 0 C9.9 0 19.8 0 30 0 C30 9.9 30 19.8 30 30 C20.1 30 10.2 30 0 30 C0 20.1 0 10.2 0 0 Z " fill="#FEFEFE" transform="translate(720,360)"/>
<path d="M0 0 C9.9 0 19.8 0 30 0 C30 9.9 30 19.8 30 30 C20.1 30 10.2 30 0 30 C0 20.1 0 10.2 0 0 Z " fill="#E3E3E3" transform="translate(690,360)"/>
<path d="M0 0 C9.9 0 19.8 0 30 0 C30 9.9 30 19.8 30 30 C20.1 30 10.2 30 0 30 C0 20.1 0 10.2 0 0 Z " fill="#E3E3E3" transform="translate(90,360)"/>
<path d="M0 0 C9.9 0 19.8 0 30 0 C30 9.9 30 19.8 30 30 C20.1 30 10.2 30 0 30 C0 20.1 0 10.2 0 0 Z " fill="#FEFEFE" transform="translate(0,360)"/>
<path d="M0 0 C9.9 0 19.8 0 30 0 C30 9.9 30 19.8 30 30 C20.1 30 10.2 30 0 30 C0 20.1 0 10.2 0 0 Z " fill="#E3E3E3" transform="translate(780,330)"/>
<path d="M0 0 C9.9 0 19.8 0 30 0 C30 9.9 30 19.8 30 30 C20.1 30 10.2 30 0 30 C0 20.1 0 10.2 0 0 Z " fill="#E3E3E3" transform="translate(720,330)"/>
<path d="M0 0 C9.9 0 19.8 0 30 0 C30 9.9 30 19.8 30 30 C20.1 30 10.2 30 0 30 C0 20.1 0 10.2 0 0 Z " fill="#FEFEFE" transform="translate(90,330)"/>
<path d="M0 0 C9.9 0 19.8 0 30 0 C30 9.9 30 19.8 30 30 C20.1 30 10.2 30 0 30 C0 20.1 0 10.2 0 0 Z " fill="#E3E3E3" transform="translate(60,330)"/>
<path d="M0 0 C9.9 0 19.8 0 30 0 C30 9.9 30 19.8 30 30 C20.1 30 10.2 30 0 30 C0 20.1 0 10.2 0 0 Z " fill="#E3E3E3" transform="translate(0,330)"/>
<path d="M0 0 C9.9 0 19.8 0 30 0 C30 9.9 30 19.8 30 30 C20.1 30 10.2 30 0 30 C0 20.1 0 10.2 0 0 Z " fill="#FEFEFE" transform="translate(780,300)"/>
<path d="M0 0 C9.9 0 19.8 0 30 0 C30 9.9 30 19.8 30 30 C20.1 30 10.2 30 0 30 C0 20.1 0 10.2 0 0 Z " fill="#E3E3E3" transform="translate(750,300)"/>
<path d="M0 0 C9.9 0 19.8 0 30 0 C30 9.9 30 19.8 30 30 C20.1 30 10.2 30 0 30 C0 20.1 0 10.2 0 0 Z " fill="#FEFEFE" transform="translate(720,300)"/>
<path d="M0 0 C9.9 0 19.8 0 30 0 C30 9.9 30 19.8 30 30 C20.1 30 10.2 30 0 30 C0 20.1 0 10.2 0 0 Z " fill="#E3E3E3" transform="translate(90,300)"/>
<path d="M0 0 C9.9 0 19.8 0 30 0 C30 9.9 30 19.8 30 30 C20.1 30 10.2 30 0 30 C0 20.1 0 10.2 0 0 Z " fill="#FEFEFE" transform="translate(60,300)"/>
<path d="M0 0 C9.9 0 19.8 0 30 0 C30 9.9 30 19.8 30 30 C20.1 30 10.2 30 0 30 C0 20.1 0 10.2 0 0 Z " fill="#E3E3E3" transform="translate(30,300)"/>
<path d="M0 0 C9.9 0 19.8 0 30 0 C30 9.9 30 19.8 30 30 C20.1 30 10.2 30 0 30 C0 20.1 0 10.2 0 0 Z " fill="#FEFEFE" transform="translate(0,300)"/>
<path d="M0 0 C9.9 0 19.8 0 30 0 C30 9.9 30 19.8 30 30 C20.1 30 10.2 30 0 30 C0 20.1 0 10.2 0 0 Z " fill="#E3E3E3" transform="translate(780,270)"/>
<path d="M0 0 C9.9 0 19.8 0 30 0 C30 9.9 30 19.8 30 30 C20.1 30 10.2 30 0 30 C0 20.1 0 10.2 0 0 Z " fill="#FEFEFE" transform="translate(90,270)"/>
<path d="M0 0 C9.9 0 19.8 0 30 0 C30 9.9 30 19.8 30 30 C20.1 30 10.2 30 0 30 C0 20.1 0 10.2 0 0 Z " fill="#E3E3E3" transform="translate(60,270)"/>
<path d="M0 0 C9.9 0 19.8 0 30 0 C30 9.9 30 19.8 30 30 C20.1 30 10.2 30 0 30 C0 20.1 0 10.2 0 0 Z " fill="#E3E3E3" transform="translate(0,270)"/>
<path d="M0 0 C9.9 0 19.8 0 30 0 C30 9.9 30 19.8 30 30 C20.1 30 10.2 30 0 30 C0 20.1 0 10.2 0 0 Z " fill="#FEFEFE" transform="translate(720,240)"/>
<path d="M0 0 C9.9 0 19.8 0 30 0 C30 9.9 30 19.8 30 30 C20.1 30 10.2 30 0 30 C0 20.1 0 10.2 0 0 Z " fill="#E3E3E3" transform="translate(90,240)"/>
<path d="M0 0 C9.9 0 19.8 0 30 0 C30 9.9 30 19.8 30 30 C20.1 30 10.2 30 0 30 C0 20.1 0 10.2 0 0 Z " fill="#FEFEFE" transform="translate(0,240)"/>
<path d="M0 0 C9.9 0 19.8 0 30 0 C30 9.9 30 19.8 30 30 C20.1 30 10.2 30 0 30 C0 20.1 0 10.2 0 0 Z " fill="#E3E3E3" transform="translate(780,210)"/>
<path d="M0 0 C9.9 0 19.8 0 30 0 C30 9.9 30 19.8 30 30 C20.1 30 10.2 30 0 30 C0 20.1 0 10.2 0 0 Z " fill="#E3E3E3" transform="translate(720,210)"/>
<path d="M0 0 C9.9 0 19.8 0 30 0 C30 9.9 30 19.8 30 30 C20.1 30 10.2 30 0 30 C0 20.1 0 10.2 0 0 Z " fill="#FEFEFE" transform="translate(90,210)"/>
<path d="M0 0 C9.9 0 19.8 0 30 0 C30 9.9 30 19.8 30 30 C20.1 30 10.2 30 0 30 C0 20.1 0 10.2 0 0 Z " fill="#E3E3E3" transform="translate(60,210)"/>
<path d="M0 0 C9.9 0 19.8 0 30 0 C30 9.9 30 19.8 30 30 C20.1 30 10.2 30 0 30 C0 20.1 0 10.2 0 0 Z " fill="#E3E3E3" transform="translate(0,210)"/>
<path d="M0 0 C9.9 0 19.8 0 30 0 C30 9.9 30 19.8 30 30 C20.1 30 10.2 30 0 30 C0 20.1 0 10.2 0 0 Z " fill="#FEFEFE" transform="translate(780,180)"/>
<path d="M0 0 C9.9 0 19.8 0 30 0 C30 9.9 30 19.8 30 30 C20.1 30 10.2 30 0 30 C0 20.1 0 10.2 0 0 Z " fill="#E3E3E3" transform="translate(750,180)"/>
<path d="M0 0 C9.9 0 19.8 0 30 0 C30 9.9 30 19.8 30 30 C20.1 30 10.2 30 0 30 C0 20.1 0 10.2 0 0 Z " fill="#FEFEFE" transform="translate(720,180)"/>
<path d="M0 0 C9.9 0 19.8 0 30 0 C30 9.9 30 19.8 30 30 C20.1 30 10.2 30 0 30 C0 20.1 0 10.2 0 0 Z " fill="#E3E3E3" transform="translate(90,180)"/>
<path d="M0 0 C9.9 0 19.8 0 30 0 C30 9.9 30 19.8 30 30 C20.1 30 10.2 30 0 30 C0 20.1 0 10.2 0 0 Z " fill="#FEFEFE" transform="translate(60,180)"/>
<path d="M0 0 C9.9 0 19.8 0 30 0 C30 9.9 30 19.8 30 30 C20.1 30 10.2 30 0 30 C0 20.1 0 10.2 0 0 Z " fill="#E3E3E3" transform="translate(30,180)"/>
<path d="M0 0 C9.9 0 19.8 0 30 0 C30 9.9 30 19.8 30 30 C20.1 30 10.2 30 0 30 C0 20.1 0 10.2 0 0 Z " fill="#FEFEFE" transform="translate(0,180)"/>
<path d="M0 0 C9.9 0 19.8 0 30 0 C30 9.9 30 19.8 30 30 C20.1 30 10.2 30 0 30 C0 20.1 0 10.2 0 0 Z " fill="#E3E3E3" transform="translate(780,150)"/>
<path d="M0 0 C9.9 0 19.8 0 30 0 C30 9.9 30 19.8 30 30 C20.1 30 10.2 30 0 30 C0 20.1 0 10.2 0 0 Z " fill="#E3E3E3" transform="translate(720,150)"/>
<path d="M0 0 C9.9 0 19.8 0 30 0 C30 9.9 30 19.8 30 30 C20.1 30 10.2 30 0 30 C0 20.1 0 10.2 0 0 Z " fill="#FEFEFE" transform="translate(690,150)"/>
<path d="M0 0 C9.9 0 19.8 0 30 0 C30 9.9 30 19.8 30 30 C20.1 30 10.2 30 0 30 C0 20.1 0 10.2 0 0 Z " fill="#FEFEFE" transform="translate(90,150)"/>
<path d="M0 0 C9.9 0 19.8 0 30 0 C30 9.9 30 19.8 30 30 C20.1 30 10.2 30 0 30 C0 20.1 0 10.2 0 0 Z " fill="#E3E3E3" transform="translate(60,150)"/>
<path d="M0 0 C9.9 0 19.8 0 30 0 C30 9.9 30 19.8 30 30 C20.1 30 10.2 30 0 30 C0 20.1 0 10.2 0 0 Z " fill="#E3E3E3" transform="translate(0,150)"/>
<path d="M0 0 C9.9 0 19.8 0 30 0 C30 9.9 30 19.8 30 30 C20.1 30 10.2 30 0 30 C0 20.1 0 10.2 0 0 Z " fill="#FEFEFE" transform="translate(720,120)"/>
<path d="M0 0 C9.9 0 19.8 0 30 0 C30 9.9 30 19.8 30 30 C20.1 30 10.2 30 0 30 C0 20.1 0 10.2 0 0 Z " fill="#E3E3E3" transform="translate(690,120)"/>
<path d="M0 0 C9.9 0 19.8 0 30 0 C30 9.9 30 19.8 30 30 C20.1 30 10.2 30 0 30 C0 20.1 0 10.2 0 0 Z " fill="#FEFEFE" transform="translate(120,120)"/>
<path d="M0 0 C9.9 0 19.8 0 30 0 C30 9.9 30 19.8 30 30 C20.1 30 10.2 30 0 30 C0 20.1 0 10.2 0 0 Z " fill="#E3E3E3" transform="translate(90,120)"/>
<path d="M0 0 C9.9 0 19.8 0 30 0 C30 9.9 30 19.8 30 30 C20.1 30 10.2 30 0 30 C0 20.1 0 10.2 0 0 Z " fill="#FEFEFE" transform="translate(0,120)"/>
<path d="M0 0 C9.9 0 19.8 0 30 0 C30 9.9 30 19.8 30 30 C20.1 30 10.2 30 0 30 C0 20.1 0 10.2 0 0 Z " fill="#E3E3E3" transform="translate(780,90)"/>
<path d="M0 0 C9.9 0 19.8 0 30 0 C30 9.9 30 19.8 30 30 C20.1 30 10.2 30 0 30 C0 20.1 0 10.2 0 0 Z " fill="#E3E3E3" transform="translate(720,90)"/>
<path d="M0 0 C9.9 0 19.8 0 30 0 C30 9.9 30 19.8 30 30 C20.1 30 10.2 30 0 30 C0 20.1 0 10.2 0 0 Z " fill="#FEFEFE" transform="translate(690,90)"/>
<path d="M0 0 C9.9 0 19.8 0 30 0 C30 9.9 30 19.8 30 30 C20.1 30 10.2 30 0 30 C0 20.1 0 10.2 0 0 Z " fill="#E3E3E3" transform="translate(660,90)"/>
<path d="M0 0 C9.9 0 19.8 0 30 0 C30 9.9 30 19.8 30 30 C20.1 30 10.2 30 0 30 C0 20.1 0 10.2 0 0 Z " fill="#FEFEFE" transform="translate(150,90)"/>
<path d="M0 0 C9.9 0 19.8 0 30 0 C30 9.9 30 19.8 30 30 C20.1 30 10.2 30 0 30 C0 20.1 0 10.2 0 0 Z " fill="#E3E3E3" transform="translate(120,90)"/>
<path d="M0 0 C9.9 0 19.8 0 30 0 C30 9.9 30 19.8 30 30 C20.1 30 10.2 30 0 30 C0 20.1 0 10.2 0 0 Z " fill="#FEFEFE" transform="translate(90,90)"/>
<path d="M0 0 C9.9 0 19.8 0 30 0 C30 9.9 30 19.8 30 30 C20.1 30 10.2 30 0 30 C0 20.1 0 10.2 0 0 Z " fill="#E3E3E3" transform="translate(60,90)"/>
<path d="M0 0 C9.9 0 19.8 0 30 0 C30 9.9 30 19.8 30 30 C20.1 30 10.2 30 0 30 C0 20.1 0 10.2 0 0 Z " fill="#E3E3E3" transform="translate(0,90)"/>
<path d="M0 0 C9.9 0 19.8 0 30 0 C30 9.9 30 19.8 30 30 C20.1 30 10.2 30 0 30 C0 20.1 0 10.2 0 0 Z " fill="#FEFEFE" transform="translate(780,60)"/>
<path d="M0 0 C9.9 0 19.8 0 30 0 C30 9.9 30 19.8 30 30 C20.1 30 10.2 30 0 30 C0 20.1 0 10.2 0 0 Z " fill="#E3E3E3" transform="translate(750,60)"/>
<path d="M0 0 C9.9 0 19.8 0 30 0 C30 9.9 30 19.8 30 30 C20.1 30 10.2 30 0 30 C0 20.1 0 10.2 0 0 Z " fill="#FEFEFE" transform="translate(720,60)"/>
<path d="M0 0 C9.9 0 19.8 0 30 0 C30 9.9 30 19.8 30 30 C20.1 30 10.2 30 0 30 C0 20.1 0 10.2 0 0 Z " fill="#E3E3E3" transform="translate(690,60)"/>
<path d="M0 0 C9.9 0 19.8 0 30 0 C30 9.9 30 19.8 30 30 C20.1 30 10.2 30 0 30 C0 20.1 0 10.2 0 0 Z " fill="#FEFEFE" transform="translate(660,60)"/>
<path d="M0 0 C9.9 0 19.8 0 30 0 C30 9.9 30 19.8 30 30 C20.1 30 10.2 30 0 30 C0 20.1 0 10.2 0 0 Z " fill="#E3E3E3" transform="translate(630,60)"/>
<path d="M0 0 C9.9 0 19.8 0 30 0 C30 9.9 30 19.8 30 30 C20.1 30 10.2 30 0 30 C0 20.1 0 10.2 0 0 Z " fill="#E3E3E3" transform="translate(150,60)"/>
<path d="M0 0 C9.9 0 19.8 0 30 0 C30 9.9 30 19.8 30 30 C20.1 30 10.2 30 0 30 C0 20.1 0 10.2 0 0 Z " fill="#FEFEFE" transform="translate(120,60)"/>
<path d="M0 0 C9.9 0 19.8 0 30 0 C30 9.9 30 19.8 30 30 C20.1 30 10.2 30 0 30 C0 20.1 0 10.2 0 0 Z " fill="#E3E3E3" transform="translate(90,60)"/>
<path d="M0 0 C9.9 0 19.8 0 30 0 C30 9.9 30 19.8 30 30 C20.1 30 10.2 30 0 30 C0 20.1 0 10.2 0 0 Z " fill="#FEFEFE" transform="translate(60,60)"/>
<path d="M0 0 C9.9 0 19.8 0 30 0 C30 9.9 30 19.8 30 30 C20.1 30 10.2 30 0 30 C0 20.1 0 10.2 0 0 Z " fill="#E3E3E3" transform="translate(30,60)"/>
<path d="M0 0 C9.9 0 19.8 0 30 0 C30 9.9 30 19.8 30 30 C20.1 30 10.2 30 0 30 C0 20.1 0 10.2 0 0 Z " fill="#FEFEFE" transform="translate(0,60)"/>
<path d="M0 0 C9.9 0 19.8 0 30 0 C30 9.9 30 19.8 30 30 C20.1 30 10.2 30 0 30 C0 20.1 0 10.2 0 0 Z " fill="#E3E3E3" transform="translate(780,30)"/>
<path d="M0 0 C9.9 0 19.8 0 30 0 C30 9.9 30 19.8 30 30 C20.1 30 10.2 30 0 30 C0 20.1 0 10.2 0 0 Z " fill="#FEFEFE" transform="translate(750,30)"/>
<path d="M0 0 C9.9 0 19.8 0 30 0 C30 9.9 30 19.8 30 30 C20.1 30 10.2 30 0 30 C0 20.1 0 10.2 0 0 Z " fill="#E3E3E3" transform="translate(720,30)"/>
<path d="M0 0 C9.9 0 19.8 0 30 0 C30 9.9 30 19.8 30 30 C20.1 30 10.2 30 0 30 C0 20.1 0 10.2 0 0 Z " fill="#FEFEFE" transform="translate(690,30)"/>
<path d="M0 0 C9.9 0 19.8 0 30 0 C30 9.9 30 19.8 30 30 C20.1 30 10.2 30 0 30 C0 20.1 0 10.2 0 0 Z " fill="#E3E3E3" transform="translate(660,30)"/>
<path d="M0 0 C9.9 0 19.8 0 30 0 C30 9.9 30 19.8 30 30 C20.1 30 10.2 30 0 30 C0 20.1 0 10.2 0 0 Z " fill="#FEFEFE" transform="translate(630,30)"/>
<path d="M0 0 C9.9 0 19.8 0 30 0 C30 9.9 30 19.8 30 30 C20.1 30 10.2 30 0 30 C0 20.1 0 10.2 0 0 Z " fill="#E3E3E3" transform="translate(600,30)"/>
<path d="M0 0 C9.9 0 19.8 0 30 0 C30 9.9 30 19.8 30 30 C20.1 30 10.2 30 0 30 C0 20.1 0 10.2 0 0 Z " fill="#E3E3E3" transform="translate(180,30)"/>
<path d="M0 0 C9.9 0 19.8 0 30 0 C30 9.9 30 19.8 30 30 C20.1 30 10.2 30 0 30 C0 20.1 0 10.2 0 0 Z " fill="#E3E3E3" transform="translate(120,30)"/>
<path d="M0 0 C9.9 0 19.8 0 30 0 C30 9.9 30 19.8 30 30 C20.1 30 10.2 30 0 30 C0 20.1 0 10.2 0 0 Z " fill="#FEFEFE" transform="translate(90,30)"/>
<path d="M0 0 C9.9 0 19.8 0 30 0 C30 9.9 30 19.8 30 30 C20.1 30 10.2 30 0 30 C0 20.1 0 10.2 0 0 Z " fill="#E3E3E3" transform="translate(60,30)"/>
<path d="M0 0 C9.9 0 19.8 0 30 0 C30 9.9 30 19.8 30 30 C20.1 30 10.2 30 0 30 C0 20.1 0 10.2 0 0 Z " fill="#E3E3E3" transform="translate(0,30)"/>
<path d="M0 0 C9.9 0 19.8 0 30 0 C30 9.9 30 19.8 30 30 C20.1 30 10.2 30 0 30 C0 20.1 0 10.2 0 0 Z " fill="#FEFEFE" transform="translate(720,0)"/>
<path d="M0 0 C9.9 0 19.8 0 30 0 C30 9.9 30 19.8 30 30 C20.1 30 10.2 30 0 30 C0 20.1 0 10.2 0 0 Z " fill="#E3E3E3" transform="translate(690,0)"/>
<path d="M0 0 C9.9 0 19.8 0 30 0 C30 9.9 30 19.8 30 30 C20.1 30 10.2 30 0 30 C0 20.1 0 10.2 0 0 Z " fill="#E3E3E3" transform="translate(570,0)"/>
<path d="M0 0 C9.9 0 19.8 0 30 0 C30 9.9 30 19.8 30 30 C20.1 30 10.2 30 0 30 C0 20.1 0 10.2 0 0 Z " fill="#FEFEFE" transform="translate(240,0)"/>
<path d="M0 0 C9.9 0 19.8 0 30 0 C30 9.9 30 19.8 30 30 C20.1 30 10.2 30 0 30 C0 20.1 0 10.2 0 0 Z " fill="#E3E3E3" transform="translate(210,0)"/>
<path d="M0 0 C9.9 0 19.8 0 30 0 C30 9.9 30 19.8 30 30 C20.1 30 10.2 30 0 30 C0 20.1 0 10.2 0 0 Z " fill="#E3E3E3" transform="translate(90,0)"/>
<path d="M0 0 C9.9 0 19.8 0 30 0 C30.020625 4.764375 30.04125 9.52875 30.0625 14.4375 C30.071604 15.9423999 30.08070801 17.4472998 30.09008789 18.99780273 C30.09258545 20.17286377 30.09508301 21.3479248 30.09765625 22.55859375 C30.10551147 24.37315063 30.10551147 24.37315063 30.11352539 26.22436523 C30 29 30 29 29 30 C26.85441173 30.08775605 24.70595579 30.10695219 22.55859375 30.09765625 C21.38353271 30.09515869 20.20847168 30.09266113 18.99780273 30.09008789 C17.49290283 30.08098389 15.98800293 30.07187988 14.4375 30.0625 C9.673125 30.041875 4.90875 30.02125 0 30 C0 20.1 0 10.2 0 0 Z " fill="#E3E3E3" transform="translate(750,480)"/>
<path d="M0 0 C9.9 0 19.8 0 30 0 C30.020625 4.764375 30.04125 9.52875 30.0625 14.4375 C30.071604 15.9423999 30.08070801 17.4472998 30.09008789 18.99780273 C30.09258545 20.17286377 30.09508301 21.3479248 30.09765625 22.55859375 C30.10551147 24.37315063 30.10551147 24.37315063 30.11352539 26.22436523 C30 29 30 29 29 30 C26.85441173 30.08775605 24.70595579 30.10695219 22.55859375 30.09765625 C21.38353271 30.09515869 20.20847168 30.09266113 18.99780273 30.09008789 C17.49290283 30.08098389 15.98800293 30.07187988 14.4375 30.0625 C9.673125 30.041875 4.90875 30.02125 0 30 C0 20.1 0 10.2 0 0 Z " fill="#E3E3E3" transform="translate(630,480)"/>
<path d="M0 0 C9.9 0 19.8 0 30 0 C30.020625 4.764375 30.04125 9.52875 30.0625 14.4375 C30.071604 15.9423999 30.08070801 17.4472998 30.09008789 18.99780273 C30.09258545 20.17286377 30.09508301 21.3479248 30.09765625 22.55859375 C30.10551147 24.37315063 30.10551147 24.37315063 30.11352539 26.22436523 C30 29 30 29 29 30 C26.85441173 30.08775605 24.70595579 30.10695219 22.55859375 30.09765625 C21.38353271 30.09515869 20.20847168 30.09266113 18.99780273 30.09008789 C17.49290283 30.08098389 15.98800293 30.07187988 14.4375 30.0625 C9.673125 30.041875 4.90875 30.02125 0 30 C0 20.1 0 10.2 0 0 Z " fill="#E3E3E3" transform="translate(150,480)"/>
<path d="M0 0 C9.9 0 19.8 0 30 0 C30.020625 4.764375 30.04125 9.52875 30.0625 14.4375 C30.071604 15.9423999 30.08070801 17.4472998 30.09008789 18.99780273 C30.09258545 20.17286377 30.09508301 21.3479248 30.09765625 22.55859375 C30.10551147 24.37315063 30.10551147 24.37315063 30.11352539 26.22436523 C30 29 30 29 29 30 C26.85441173 30.08775605 24.70595579 30.10695219 22.55859375 30.09765625 C21.38353271 30.09515869 20.20847168 30.09266113 18.99780273 30.09008789 C17.49290283 30.08098389 15.98800293 30.07187988 14.4375 30.0625 C9.673125 30.041875 4.90875 30.02125 0 30 C0 20.1 0 10.2 0 0 Z " fill="#E3E3E3" transform="translate(30,480)"/>
<path d="M0 0 C9.9 0 19.8 0 30 0 C30.020625 4.764375 30.04125 9.52875 30.0625 14.4375 C30.071604 15.9423999 30.08070801 17.4472998 30.09008789 18.99780273 C30.09258545 20.17286377 30.09508301 21.3479248 30.09765625 22.55859375 C30.10551147 24.37315063 30.10551147 24.37315063 30.11352539 26.22436523 C30 29 30 29 29 30 C26.85441173 30.08775605 24.70595579 30.10695219 22.55859375 30.09765625 C21.38353271 30.09515869 20.20847168 30.09266113 18.99780273 30.09008789 C17.49290283 30.08098389 15.98800293 30.07187988 14.4375 30.0625 C9.673125 30.041875 4.90875 30.02125 0 30 C0 20.1 0 10.2 0 0 Z " fill="#E3E3E3" transform="translate(750,360)"/>
<path d="M0 0 C9.9 0 19.8 0 30 0 C30.020625 4.764375 30.04125 9.52875 30.0625 14.4375 C30.071604 15.9423999 30.08070801 17.4472998 30.09008789 18.99780273 C30.09258545 20.17286377 30.09508301 21.3479248 30.09765625 22.55859375 C30.10551147 24.37315063 30.10551147 24.37315063 30.11352539 26.22436523 C30 29 30 29 29 30 C26.85441173 30.08775605 24.70595579 30.10695219 22.55859375 30.09765625 C21.38353271 30.09515869 20.20847168 30.09266113 18.99780273 30.09008789 C17.49290283 30.08098389 15.98800293 30.07187988 14.4375 30.0625 C9.673125 30.041875 4.90875 30.02125 0 30 C0 20.1 0 10.2 0 0 Z " fill="#E3E3E3" transform="translate(30,360)"/>
<path d="M0 0 C9.9 0 19.8 0 30 0 C30.020625 4.764375 30.04125 9.52875 30.0625 14.4375 C30.071604 15.9423999 30.08070801 17.4472998 30.09008789 18.99780273 C30.09258545 20.17286377 30.09508301 21.3479248 30.09765625 22.55859375 C30.10551147 24.37315063 30.10551147 24.37315063 30.11352539 26.22436523 C30 29 30 29 29 30 C26.85441173 30.08775605 24.70595579 30.10695219 22.55859375 30.09765625 C21.38353271 30.09515869 20.20847168 30.09266113 18.99780273 30.09008789 C17.49290283 30.08098389 15.98800293 30.07187988 14.4375 30.0625 C9.673125 30.041875 4.90875 30.02125 0 30 C0 20.1 0 10.2 0 0 Z " fill="#E3E3E3" transform="translate(750,240)"/>
<path d="M0 0 C9.9 0 19.8 0 30 0 C30.020625 4.764375 30.04125 9.52875 30.0625 14.4375 C30.071604 15.9423999 30.08070801 17.4472998 30.09008789 18.99780273 C30.09258545 20.17286377 30.09508301 21.3479248 30.09765625 22.55859375 C30.10551147 24.37315063 30.10551147 24.37315063 30.11352539 26.22436523 C30 29 30 29 29 30 C26.85441173 30.08775605 24.70595579 30.10695219 22.55859375 30.09765625 C21.38353271 30.09515869 20.20847168 30.09266113 18.99780273 30.09008789 C17.49290283 30.08098389 15.98800293 30.07187988 14.4375 30.0625 C9.673125 30.041875 4.90875 30.02125 0 30 C0 20.1 0 10.2 0 0 Z " fill="#E3E3E3" transform="translate(30,240)"/>
<path d="M0 0 C9.9 0 19.8 0 30 0 C30.020625 4.764375 30.04125 9.52875 30.0625 14.4375 C30.071604 15.9423999 30.08070801 17.4472998 30.09008789 18.99780273 C30.09258545 20.17286377 30.09508301 21.3479248 30.09765625 22.55859375 C30.10551147 24.37315063 30.10551147 24.37315063 30.11352539 26.22436523 C30 29 30 29 29 30 C26.85441173 30.08775605 24.70595579 30.10695219 22.55859375 30.09765625 C21.38353271 30.09515869 20.20847168 30.09266113 18.99780273 30.09008789 C17.49290283 30.08098389 15.98800293 30.07187988 14.4375 30.0625 C9.673125 30.041875 4.90875 30.02125 0 30 C0 20.1 0 10.2 0 0 Z " fill="#E3E3E3" transform="translate(750,120)"/>
<path d="M0 0 C9.9 0 19.8 0 30 0 C30.020625 4.764375 30.04125 9.52875 30.0625 14.4375 C30.071604 15.9423999 30.08070801 17.4472998 30.09008789 18.99780273 C30.09258545 20.17286377 30.09508301 21.3479248 30.09765625 22.55859375 C30.10551147 24.37315063 30.10551147 24.37315063 30.11352539 26.22436523 C30 29 30 29 29 30 C26.85441173 30.08775605 24.70595579 30.10695219 22.55859375 30.09765625 C21.38353271 30.09515869 20.20847168 30.09266113 18.99780273 30.09008789 C17.49290283 30.08098389 15.98800293 30.07187988 14.4375 30.0625 C9.673125 30.041875 4.90875 30.02125 0 30 C0 20.1 0 10.2 0 0 Z " fill="#E3E3E3" transform="translate(30,120)"/>
<path d="M0 0 C9.9 0 19.8 0 30 0 C30.020625 4.764375 30.04125 9.52875 30.0625 14.4375 C30.071604 15.9423999 30.08070801 17.4472998 30.09008789 18.99780273 C30.09258545 20.17286377 30.09508301 21.3479248 30.09765625 22.55859375 C30.10551147 24.37315063 30.10551147 24.37315063 30.11352539 26.22436523 C30 29 30 29 29 30 C26.85441173 30.08775605 24.70595579 30.10695219 22.55859375 30.09765625 C21.38353271 30.09515869 20.20847168 30.09266113 18.99780273 30.09008789 C17.49290283 30.08098389 15.98800293 30.07187988 14.4375 30.0625 C9.673125 30.041875 4.90875 30.02125 0 30 C0 20.1 0 10.2 0 0 Z " fill="#E3E3E3" transform="translate(750,0)"/>
<path d="M0 0 C9.9 0 19.8 0 30 0 C30.020625 4.764375 30.04125 9.52875 30.0625 14.4375 C30.071604 15.9423999 30.08070801 17.4472998 30.09008789 18.99780273 C30.09258545 20.17286377 30.09508301 21.3479248 30.09765625 22.55859375 C30.10551147 24.37315063 30.10551147 24.37315063 30.11352539 26.22436523 C30 29 30 29 29 30 C26.85441173 30.08775605 24.70595579 30.10695219 22.55859375 30.09765625 C21.38353271 30.09515869 20.20847168 30.09266113 18.99780273 30.09008789 C17.49290283 30.08098389 15.98800293 30.07187988 14.4375 30.0625 C9.673125 30.041875 4.90875 30.02125 0 30 C0 20.1 0 10.2 0 0 Z " fill="#E3E3E3" transform="translate(630,0)"/>
<path d="M0 0 C9.9 0 19.8 0 30 0 C30.020625 4.764375 30.04125 9.52875 30.0625 14.4375 C30.071604 15.9423999 30.08070801 17.4472998 30.09008789 18.99780273 C30.09258545 20.17286377 30.09508301 21.3479248 30.09765625 22.55859375 C30.10551147 24.37315063 30.10551147 24.37315063 30.11352539 26.22436523 C30 29 30 29 29 30 C26.85441173 30.08775605 24.70595579 30.10695219 22.55859375 30.09765625 C21.38353271 30.09515869 20.20847168 30.09266113 18.99780273 30.09008789 C17.49290283 30.08098389 15.98800293 30.07187988 14.4375 30.0625 C9.673125 30.041875 4.90875 30.02125 0 30 C0 20.1 0 10.2 0 0 Z " fill="#E3E3E3" transform="translate(150,0)"/>
<path d="M0 0 C9.9 0 19.8 0 30 0 C30.020625 4.764375 30.04125 9.52875 30.0625 14.4375 C30.071604 15.9423999 30.08070801 17.4472998 30.09008789 18.99780273 C30.09258545 20.17286377 30.09508301 21.3479248 30.09765625 22.55859375 C30.10551147 24.37315063 30.10551147 24.37315063 30.11352539 26.22436523 C30 29 30 29 29 30 C26.85441173 30.08775605 24.70595579 30.10695219 22.55859375 30.09765625 C21.38353271 30.09515869 20.20847168 30.09266113 18.99780273 30.09008789 C17.49290283 30.08098389 15.98800293 30.07187988 14.4375 30.0625 C9.673125 30.041875 4.90875 30.02125 0 30 C0 20.1 0 10.2 0 0 Z " fill="#E3E3E3" transform="translate(30,0)"/>
<path d="M0 0 C9.9 0 19.8 0 30 0 C30.04125 4.57875 30.0825 9.1575 30.125 13.875 C30.14320801 15.31858887 30.16141602 16.76217773 30.18017578 18.24951172 C30.1851709 19.38146973 30.19016602 20.51342773 30.1953125 21.6796875 C30.20578613 22.84226074 30.21625977 24.00483398 30.22705078 25.20263672 C30 28 30 28 28 30 C25.20263672 30.22705078 25.20263672 30.22705078 21.6796875 30.1953125 C19.98175049 30.18781982 19.98175049 30.18781982 18.24951172 30.18017578 C16.80592285 30.16196777 15.36233398 30.14375977 13.875 30.125 C9.29625 30.08375 4.7175 30.0425 0 30 C0 20.1 0 10.2 0 0 Z " fill="#FEFEFE" transform="translate(180,60)"/>
<path d="M0 0 C6.0328125 0.1546875 6.0328125 0.1546875 12.1875 0.3125 C12.1875 10.2125 12.1875 20.1125 12.1875 30.3125 C2.2875 30.3125 -7.6125 30.3125 -17.8125 30.3125 C-17.915625 26.290625 -18.01875 22.26875 -18.125 18.125 C-18.17052002 16.86534424 -18.21604004 15.60568848 -18.26293945 14.30786133 C-18.32152049 9.60437106 -18.29973362 6.24267328 -16.09375 2.03125 C-10.86773612 -0.70618584 -5.79065117 -0.20925602 0 0 Z " fill="#FEFEFE" transform="translate(677.8125,419.6875)"/>
<path d="M0 0 C10.23 0.33 20.46 0.66 31 1 C31 10.24 31 19.48 31 29 C21.1 29 11.2 29 1 29 C0.67 19.43 0.34 9.86 0 0 Z " fill="#FEFEFE" transform="translate(539,539)"/>
<path d="M0 0 C33 0 66 0 100 0 C100 0.33 100 0.66 100 1 C99.2972998 1.03963867 98.59459961 1.07927734 97.87060547 1.12011719 C66.6576469 2.95706907 37.54634237 8.88359217 8.33569336 20.13378906 C5.58080639 21.15546137 2.78745312 22.07084896 0 23 C0 15.41 0 7.82 0 0 Z " fill="#FCFCFC" transform="translate(300,0)"/>
<path d="M0 0 C9.9 0 19.8 0 30 0 C30 9.24 30 18.48 30 28 C20.1 28 10.2 28 0 28 C0 18.76 0 9.52 0 0 Z " fill="#FEFEFE" transform="translate(780,540)"/>
<path d="M0 0 C9.9 0 19.8 0 30 0 C30 9.24 30 18.48 30 28 C20.1 28 10.2 28 0 28 C0 18.76 0 9.52 0 0 Z " fill="#E3E3E3" transform="translate(750,540)"/>
<path d="M0 0 C9.9 0 19.8 0 30 0 C30 9.24 30 18.48 30 28 C20.1 28 10.2 28 0 28 C0 18.76 0 9.52 0 0 Z " fill="#FEFEFE" transform="translate(720,540)"/>
<path d="M0 0 C9.9 0 19.8 0 30 0 C30 9.24 30 18.48 30 28 C20.1 28 10.2 28 0 28 C0 18.76 0 9.52 0 0 Z " fill="#E3E3E3" transform="translate(690,540)"/>
<path d="M0 0 C9.9 0 19.8 0 30 0 C30 9.24 30 18.48 30 28 C20.1 28 10.2 28 0 28 C0 18.76 0 9.52 0 0 Z " fill="#FEFEFE" transform="translate(660,540)"/>
<path d="M0 0 C9.9 0 19.8 0 30 0 C30 9.24 30 18.48 30 28 C20.1 28 10.2 28 0 28 C0 18.76 0 9.52 0 0 Z " fill="#E3E3E3" transform="translate(630,540)"/>
<path d="M0 0 C9.9 0 19.8 0 30 0 C30 9.24 30 18.48 30 28 C20.1 28 10.2 28 0 28 C0 18.76 0 9.52 0 0 Z " fill="#FEFEFE" transform="translate(600,540)"/>
<path d="M0 0 C9.9 0 19.8 0 30 0 C30 9.24 30 18.48 30 28 C20.1 28 10.2 28 0 28 C0 18.76 0 9.52 0 0 Z " fill="#E3E3E3" transform="translate(570,540)"/>
<path d="M0 0 C9.9 0 19.8 0 30 0 C30 9.24 30 18.48 30 28 C20.1 28 10.2 28 0 28 C0 18.76 0 9.52 0 0 Z " fill="#FEFEFE" transform="translate(240,540)"/>
<path d="M0 0 C9.9 0 19.8 0 30 0 C30 9.24 30 18.48 30 28 C20.1 28 10.2 28 0 28 C0 18.76 0 9.52 0 0 Z " fill="#E3E3E3" transform="translate(210,540)"/>
<path d="M0 0 C9.9 0 19.8 0 30 0 C30 9.24 30 18.48 30 28 C20.1 28 10.2 28 0 28 C0 18.76 0 9.52 0 0 Z " fill="#FEFEFE" transform="translate(180,540)"/>
<path d="M0 0 C9.9 0 19.8 0 30 0 C30 9.24 30 18.48 30 28 C20.1 28 10.2 28 0 28 C0 18.76 0 9.52 0 0 Z " fill="#E3E3E3" transform="translate(150,540)"/>
<path d="M0 0 C9.9 0 19.8 0 30 0 C30 9.24 30 18.48 30 28 C20.1 28 10.2 28 0 28 C0 18.76 0 9.52 0 0 Z " fill="#FEFEFE" transform="translate(120,540)"/>
<path d="M0 0 C9.9 0 19.8 0 30 0 C30 9.24 30 18.48 30 28 C20.1 28 10.2 28 0 28 C0 18.76 0 9.52 0 0 Z " fill="#E3E3E3" transform="translate(90,540)"/>
<path d="M0 0 C9.9 0 19.8 0 30 0 C30 9.24 30 18.48 30 28 C20.1 28 10.2 28 0 28 C0 18.76 0 9.52 0 0 Z " fill="#FEFEFE" transform="translate(60,540)"/>
<path d="M0 0 C9.9 0 19.8 0 30 0 C30 9.24 30 18.48 30 28 C20.1 28 10.2 28 0 28 C0 18.76 0 9.52 0 0 Z " fill="#E3E3E3" transform="translate(30,540)"/>
<path d="M0 0 C9.9 0 19.8 0 30 0 C30 9.24 30 18.48 30 28 C20.1 28 10.2 28 0 28 C0 18.76 0 9.52 0 0 Z " fill="#FEFEFE" transform="translate(0,540)"/>
<path d="M0 0 C1.20970459 0.00523682 2.41940918 0.01047363 3.66577148 0.01586914 C4.84083252 0.0183667 6.01589355 0.02086426 7.2265625 0.0234375 C8.7314624 0.0325415 10.2363623 0.04164551 11.78686523 0.05102539 C16.55124023 0.07165039 21.31561523 0.09227539 26.22436523 0.11352539 C26.22436523 10.01352539 26.22436523 19.91352539 26.22436523 30.11352539 C17.97436523 30.11352539 9.72436523 30.11352539 1.22436523 30.11352539 C0.39936523 26.25665039 -0.42563477 22.39977539 -1.27563477 18.42602539 C-1.53666992 17.21857666 -1.79770508 16.01112793 -2.06665039 14.76708984 C-2.26967773 13.80504639 -2.47270508 12.84300293 -2.68188477 11.85180664 C-2.89135742 10.87252197 -3.10083008 9.8932373 -3.31665039 8.88427734 C-3.75799272 6.22002517 -3.93559049 3.80740652 -3.77563477 1.11352539 C-2.77563477 0.11352539 -2.77563477 0.11352539 0 0 Z " fill="#FDFDFD" transform="translate(693.775634765625,209.886474609375)"/>
<path d="M0 0 C6.6 0 13.2 0 20 0 C22.29076465 6.10870572 24.52353879 12.2219412 26.6875 18.375 C27.00783203 19.27605469 27.32816406 20.17710937 27.65820312 21.10546875 C27.96048828 21.96527344 28.26277344 22.82507813 28.57421875 23.7109375 C28.84838623 24.48743652 29.12255371 25.26393555 29.4050293 26.06396484 C30 28 30 28 30 30 C20.1 30 10.2 30 0 30 C0 20.1 0 10.2 0 0 Z " fill="#FDFDFD" transform="translate(120,360)"/>
<path d="M0 0 C9.57 0 19.14 0 29 0 C28.23533095 3.82334527 27.34403247 7.26847092 26.15234375 10.95703125 C25.79462891 12.06884766 25.43691406 13.18066406 25.06835938 14.32617188 C24.69517578 15.47666016 24.32199219 16.62714844 23.9375 17.8125 C23.56044922 18.98232422 23.18339844 20.15214844 22.79492188 21.35742188 C21.8657361 24.23907397 20.93319311 27.11964314 20 30 C13.4 30 6.8 30 0 30 C0 20.1 0 10.2 0 0 Z " fill="#FDFDFD" transform="translate(120,180)"/>
<path d="M0 0 C7.26 0 14.52 0 22 0 C22 9.9 22 19.8 22 30 C13.75 30 5.5 30 -3 30 C-3 20.99063476 -3 20.99063476 -2.59765625 17.421875 C-2.51193359 16.65359375 -2.42621094 15.8853125 -2.33789062 15.09375 C-2.24701172 14.3203125 -2.15613281 13.546875 -2.0625 12.75 C-1.97548828 11.96109375 -1.88847656 11.1721875 -1.79882812 10.359375 C-1.39134418 6.78558984 -0.87696403 3.50785611 0 0 Z " fill="#E2E2E2" transform="translate(698,300)"/>
<path d="M0 0 C8.25 0 16.5 0 25 0 C25 9.9 25 19.8 25 30 C17.74 30 10.48 30 3 30 C2.49722 25.7503119 1.9976603 21.500288 1.5 17.25 C1.35691406 16.0434375 1.21382812 14.836875 1.06640625 13.59375 C0.93105469 12.43359375 0.79570313 11.2734375 0.65625 10.078125 C0.53056641 9.00981445 0.40488281 7.94150391 0.27539062 6.84082031 C0 4 0 4 0 0 Z " fill="#E2E2E2" transform="translate(695,240)"/>
<path d="M0 0 C7.26 0 14.52 0 22 0 C22 9.9 22 19.8 22 30 C14.74 30 7.48 30 0 30 C0 20.1 0 10.2 0 0 Z " fill="#FEFEFE" transform="translate(698,270)"/>
<path d="M0 0 C6.6 0 13.2 0 20 0 C20 9.9 20 19.8 20 30 C13.4 30 6.8 30 0 30 C0 20.1 0 10.2 0 0 Z " fill="#E3E3E3" transform="translate(810,480)"/>
<path d="M0 0 C6.6 0 13.2 0 20 0 C20 9.9 20 19.8 20 30 C13.4 30 6.8 30 0 30 C0 20.1 0 10.2 0 0 Z " fill="#FEFEFE" transform="translate(810,450)"/>
<path d="M0 0 C6.6 0 13.2 0 20 0 C20 9.9 20 19.8 20 30 C13.4 30 6.8 30 0 30 C0 20.1 0 10.2 0 0 Z " fill="#E3E3E3" transform="translate(810,420)"/>
<path d="M0 0 C6.6 0 13.2 0 20 0 C20 9.9 20 19.8 20 30 C13.4 30 6.8 30 0 30 C0 20.1 0 10.2 0 0 Z " fill="#FEFEFE" transform="translate(810,390)"/>
<path d="M0 0 C6.6 0 13.2 0 20 0 C20 9.9 20 19.8 20 30 C13.4 30 6.8 30 0 30 C0 20.1 0 10.2 0 0 Z " fill="#E3E3E3" transform="translate(810,360)"/>
<path d="M0 0 C6.6 0 13.2 0 20 0 C20 9.9 20 19.8 20 30 C13.4 30 6.8 30 0 30 C0 20.1 0 10.2 0 0 Z " fill="#FEFEFE" transform="translate(810,330)"/>
<path d="M0 0 C6.6 0 13.2 0 20 0 C20 9.9 20 19.8 20 30 C13.4 30 6.8 30 0 30 C0 20.1 0 10.2 0 0 Z " fill="#E3E3E3" transform="translate(810,300)"/>
<path d="M0 0 C6.6 0 13.2 0 20 0 C20 9.9 20 19.8 20 30 C13.4 30 6.8 30 0 30 C0 20.1 0 10.2 0 0 Z " fill="#FEFEFE" transform="translate(810,270)"/>
<path d="M0 0 C6.6 0 13.2 0 20 0 C20 9.9 20 19.8 20 30 C13.4 30 6.8 30 0 30 C0 20.1 0 10.2 0 0 Z " fill="#E3E3E3" transform="translate(810,240)"/>
<path d="M0 0 C6.6 0 13.2 0 20 0 C20 9.9 20 19.8 20 30 C13.4 30 6.8 30 0 30 C0 20.1 0 10.2 0 0 Z " fill="#FEFEFE" transform="translate(810,210)"/>
<path d="M0 0 C6.6 0 13.2 0 20 0 C20 9.9 20 19.8 20 30 C13.4 30 6.8 30 0 30 C0 20.1 0 10.2 0 0 Z " fill="#E3E3E3" transform="translate(810,180)"/>
<path d="M0 0 C6.6 0 13.2 0 20 0 C20 9.9 20 19.8 20 30 C13.4 30 6.8 30 0 30 C0 20.1 0 10.2 0 0 Z " fill="#FEFEFE" transform="translate(810,150)"/>
<path d="M0 0 C6.6 0 13.2 0 20 0 C20 9.9 20 19.8 20 30 C13.4 30 6.8 30 0 30 C0 20.1 0 10.2 0 0 Z " fill="#E3E3E3" transform="translate(810,120)"/>
<path d="M0 0 C6.6 0 13.2 0 20 0 C20 9.9 20 19.8 20 30 C13.4 30 6.8 30 0 30 C0 20.1 0 10.2 0 0 Z " fill="#FEFEFE" transform="translate(810,90)"/>
<path d="M0 0 C6.6 0 13.2 0 20 0 C20 9.9 20 19.8 20 30 C13.4 30 6.8 30 0 30 C0 20.1 0 10.2 0 0 Z " fill="#E3E3E3" transform="translate(810,60)"/>
<path d="M0 0 C6.6 0 13.2 0 20 0 C20 9.9 20 19.8 20 30 C13.4 30 6.8 30 0 30 C0 20.1 0 10.2 0 0 Z " fill="#FEFEFE" transform="translate(810,30)"/>
<path d="M0 0 C6.6 0 13.2 0 20 0 C20 9.9 20 19.8 20 30 C13.4 30 6.8 30 0 30 C0 20.1 0 10.2 0 0 Z " fill="#E3E3E3" transform="translate(810,0)"/>
<path d="M0 0 C3.96 0.33 7.92 0.66 12 1 C12 10.9 12 20.8 12 31 C-0.375 31.4375 -0.375 31.4375 -4.27490234 31.56811523 C-5.79011475 31.6252771 -5.79011475 31.6252771 -7.3359375 31.68359375 C-8.89127197 31.73858032 -8.89127197 31.73858032 -10.47802734 31.79467773 C-12.99425166 31.84164223 -12.99425166 31.84164223 -15 33 C-13.62959148 29.47382124 -12.11469828 26.06207818 -10.46875 22.65625 C-9.98792969 21.65722656 -9.50710938 20.65820312 -9.01171875 19.62890625 C-8.00390625 17.54296875 -6.99609375 15.45703125 -5.98828125 13.37109375 C-5.26705078 11.87255859 -5.26705078 11.87255859 -4.53125 10.34375 C-4.09361328 9.43818359 -3.65597656 8.53261719 -3.20507812 7.59960938 C-2.04881441 5.10530305 -1.02105489 2.55263721 0 0 Z " fill="#E2E2E2" transform="translate(678,389)"/>
<path d="M0 0 C6.6 0 13.2 0 20 0 C20 9.24 20 18.48 20 28 C13.4 28 6.8 28 0 28 C0 18.76 0 9.52 0 0 Z " fill="#E3E3E3" transform="translate(810,540)"/>
<path d="M0 0 C5.16394601 0.98360876 10.2611899 2.05745315 15.35253906 3.36914062 C19.21585727 4.33543654 23.10440707 5.17501643 27 6 C27.87092285 6.18916992 28.7418457 6.37833984 29.63916016 6.57324219 C47.09725631 10.17682328 64.48797531 10.40169772 82.25 10.4375 C83.39101166 10.44358276 84.53202332 10.44966553 85.70761108 10.45593262 C107.84553274 10.5330177 129.24061378 7.87383012 151 4 C150.67 6.64 150.34 9.28 150 12 C100.5 12 51 12 0 12 C0 8.04 0 4.08 0 0 Z " fill="#E0E0E0" transform="translate(330,556)"/>
<path d="M0 0 C3.87296505 0.77459301 7.04956912 1.65889744 10.703125 3.03125 C11.7653125 3.42957031 12.8275 3.82789063 13.921875 4.23828125 C15.02015625 4.65464844 16.1184375 5.07101562 17.25 5.5 C18.36375 5.91636719 19.4775 6.33273437 20.625 6.76171875 C28.86787549 9.86787549 28.86787549 9.86787549 30 11 C30 14.96 30 18.92 30 23 C20.1 23 10.2 23 0 23 C0 15.41 0 7.82 0 0 Z " fill="#FDFDFD" transform="translate(300,545)"/>
<path d="M0 0 C0.33 0 0.66 0 1 0 C1.16604736 0.95869995 1.16604736 0.95869995 1.33544922 1.93676758 C1.848166 4.89542616 2.3615801 7.85396335 2.875 10.8125 C3.04902344 11.81732422 3.22304687 12.82214844 3.40234375 13.85742188 C4.56921625 20.57774312 5.77205696 27.29056349 7 34 C0.4 34 -6.2 34 -13 34 C-13 24.1 -13 14.2 -13 4 C-8.71 4 -4.42 4 0 4 C0 2.68 0 1.36 0 0 Z " fill="#E0E0E0" transform="translate(133,326)"/>
<path d="M0 0 C6.6 0 13.2 0 20 0 C19.65066406 1.6396875 19.30132812 3.279375 18.94140625 4.96875 C18.4815989 7.14579703 18.02197308 9.3228824 17.5625 11.5 C17.33240234 12.57765625 17.10230469 13.6553125 16.86523438 14.765625 C15.65823466 20.50324685 14.61572225 26.16833182 14 32 C13.67 31.34 13.34 30.68 13 30 C8.71 30 4.42 30 0 30 C0 20.1 0 10.2 0 0 Z " fill="#E1E1E1" transform="translate(120,210)"/>
<path d="M0 0 C26.73 0 53.46 0 81 0 C81 4.95 81 9.9 81 15 C76.4288531 14.34697901 72.54655892 13.70844959 68.19140625 12.4765625 C66.58833618 12.03026489 66.58833618 12.03026489 64.95288086 11.57495117 C63.83405518 11.26146729 62.71522949 10.9479834 61.5625 10.625 C41.21392993 5.05022343 21.02903442 2.16317803 0 1 C0 0.67 0 0.34 0 0 Z " fill="#FBFBFB" transform="translate(429,0)"/>
<path d="M0 0 C-3.99689016 4.05802806 -8.13295726 7.94371954 -12.3125 11.8125 C-17.2089104 16.35618772 -22.035976 20.93765482 -26.6796875 25.7421875 C-28 27 -28 27 -29 27 C-29 18.09 -29 9.18 -29 0 C-25.32875 -0.185625 -21.6575 -0.37125 -17.875 -0.5625 C-16.15579346 -0.65446655 -16.15579346 -0.65446655 -14.40185547 -0.74829102 C-9.45262325 -0.98043543 -4.86796825 -1.1369822 0 0 Z " fill="#E0E0E0" transform="translate(239,60)"/>
<path d="M0 0 C3.63 0 7.26 0 11 0 C12.1642402 10.03117672 13.29323541 19.88337828 13 30 C8.71 30 4.42 30 0 30 C0 20.1 0 10.2 0 0 Z " fill="#FDFDFD" transform="translate(120,300)"/>
<path d="M0 0 C0 5.28 0 10.56 0 16 C-9.9 16 -19.8 16 -30 16 C-30 13.69 -30 11.38 -30 9 C-26.60952019 6.73968013 -23.82042768 6.05483484 -19.875 5.0625 C-15.44701223 3.93154208 -11.06881023 2.75374416 -6.75 1.25 C-3 0 -3 0 0 0 Z " fill="#FCFCFC" transform="translate(510,552)"/>
<path d="M0 0 C3.63 0 7.26 0 11 0 C11 9.9 11 19.8 11 30 C7.37 30 3.74 30 0 30 C0 20.1 0 10.2 0 0 Z " fill="#E1E1E1" transform="translate(120,270)"/>
<path d="M0 0 C23.1 0 46.2 0 70 0 C70 0.33 70 0.66 70 1 C69.2972998 1.03963867 68.59459961 1.07927734 67.87060547 1.12011719 C46.46575739 2.37984 26.23230421 5.29379162 5.578125 11.046875 C2 12 2 12 0 12 C0 8.04 0 4.08 0 0 Z " fill="#E1E1E1" transform="translate(330,0)"/>
<path d="M0 0 C0.66 0.33 1.32 0.66 2 1 C2 6.61 2 12.22 2 18 C-7.9 18 -17.8 18 -28 18 C-28 17.34 -28 16.68 -28 16 C-26.90042969 15.43152344 -25.80085937 14.86304688 -24.66796875 14.27734375 C-16.85890858 10.20789579 -9.27024588 6.10932923 -2.00390625 1.1171875 C-1.34261719 0.74851562 -0.68132813 0.37984375 0 0 Z " fill="#E0E0E0" transform="translate(568,522)"/>
<path d="M0 0 C3.04480558 3.58157982 4.65066056 7.52170818 6.4375 11.8125 C8.17552456 15.97204192 9.93416111 19.99597469 12.22265625 23.88671875 C14 27 14 27 14 29 C9.38 29 4.76 29 0 29 C-0.19457632 24.91689067 -0.38095279 20.83369152 -0.5625 16.75 C-0.61857422 15.59113281 -0.67464844 14.43226563 -0.73242188 13.23828125 C-0.78076172 12.12324219 -0.82910156 11.00820313 -0.87890625 9.859375 C-0.9260376 8.83295898 -0.97316895 7.80654297 -1.02172852 6.74902344 C-1.00222257 4.28119317 -0.72799029 2.34329535 0 0 Z " fill="#F8F8F8" transform="translate(150,391)"/>
<path d="M0 0 C-0.33 2.31 -0.66 4.62 -1 7 C-27.4 7 -53.8 7 -81 7 C-81 6.67 -81 6.34 -81 6 C-79.41638672 5.97812622 -79.41638672 5.97812622 -77.80078125 5.95581055 C-53.11920797 5.58889344 -29.08162053 4.57003166 -4.8515625 -0.546875 C-2 -1 -2 -1 0 0 Z " fill="#D1D1D1" transform="translate(481,561)"/>
<path d="M0 0 C7.59 0 15.18 0 23 0 C23.9765625 10.7421875 23.9765625 10.7421875 24 14 C23.34 14.66 22.68 15.32 22 16 C20.92621094 15.32453125 19.85242188 14.6490625 18.74609375 13.953125 C17.30994181 13.05201006 15.8737413 12.15097252 14.4375 11.25 C13.38079102 10.58484375 13.38079102 10.58484375 12.30273438 9.90625 C7.92446698 7.16226675 3.50374409 4.53298617 -1 2 C-0.67 1.34 -0.34 0.68 0 0 Z " fill="#E1E1E1" transform="translate(547,30)"/>
<path d="M0 0 C4.29 0 8.58 0 13 0 C11.60498346 3.48754135 10.17358928 6.88866965 8.6171875 10.30078125 C8.17246094 11.27724609 7.72773438 12.25371094 7.26953125 13.25976562 C6.80933594 14.26716797 6.34914062 15.27457031 5.875 16.3125 C5.40707031 17.33923828 4.93914062 18.36597656 4.45703125 19.42382812 C3.30570953 21.94968701 2.15333284 24.47505894 1 27 C-0.98974803 23.69959882 -1.18869828 21.39656905 -0.9765625 17.578125 C-0.925 16.55332031 -0.8734375 15.52851563 -0.8203125 14.47265625 C-0.75585938 13.40917969 -0.69140625 12.34570312 -0.625 11.25 C-0.56828125 10.17105469 -0.5115625 9.09210938 -0.453125 7.98046875 C-0.31184928 5.31977598 -0.15720856 2.65979893 0 0 Z " fill="#F9F9F9" transform="translate(150,150)"/>
<path d="M0 0 C0.33 0 0.66 0 1 0 C1 7.59 1 15.18 1 23 C-3.62 23.33 -8.24 23.66 -13 24 C-13 20.05060869 -12.9836057 19.47770758 -10.91796875 16.50390625 C-10.48033203 15.86259766 -10.04269531 15.22128906 -9.59179688 14.56054688 C-9.12837891 13.90119141 -8.66496094 13.24183594 -8.1875 12.5625 C-7.28417869 11.25197536 -6.38181378 9.94079091 -5.48046875 8.62890625 C-5.05169434 8.01031738 -4.62291992 7.39172852 -4.18115234 6.75439453 C-3.1445706 5.21473425 -2.18457588 3.62408479 -1.23828125 2.02734375 C-0.82964844 1.35832031 -0.42101562 0.68929688 0 0 Z " fill="#E0E0E0" transform="translate(659,427)"/>
<path d="M0 0 C3.3 0 6.6 0 10 0 C10 8.91 10 17.82 10 27 C9.34 27 8.68 27 8 27 C6.65649992 23.25356427 5.32698339 19.50231451 4 15.75 C3.6184375 14.68652344 3.236875 13.62304688 2.84375 12.52734375 C2.4828125 11.50253906 2.121875 10.47773438 1.75 9.421875 C1.41484375 8.47924805 1.0796875 7.53662109 0.734375 6.56542969 C0 4 0 4 0 0 Z " fill="#F9F9F9" transform="translate(680,180)"/>
<path d="M0 0 C16.83 0 33.66 0 51 0 C51 2.31 51 4.62 51 7 C50.11828125 6.83564453 50.11828125 6.83564453 49.21875 6.66796875 C32.96514753 3.79556486 16.4901255 1.76636801 0 1 C0 0.67 0 0.34 0 0 Z " fill="#DFDFDF" transform="translate(429,0)"/>
<path d="M0 0 C12.18466196 2.27447023 12.18466196 2.27447023 15 4 C16.1807689 7.28928478 16.1157177 8.65284689 15 12 C10.05 12 5.1 12 0 12 C0 8.04 0 4.08 0 0 Z " fill="#E2E2E2" transform="translate(330,556)"/>
<path d="M0 0 C4.29 0 8.58 0 13 0 C13 6.6 13 13.2 13 20 C9.92926957 16.16158696 7.04876234 12.3374302 4.25 8.3125 C3.83878906 7.73177734 3.42757812 7.15105469 3.00390625 6.55273438 C0 2.23649034 0 2.23649034 0 0 Z " fill="#DFDFDF" transform="translate(647,120)"/>
<path d="M0 0 C7.92 3.96 7.92 3.96 16 8 C16 8.99 16 9.98 16 11 C10.72 11 5.44 11 0 11 C0 7.37 0 3.74 0 0 Z " fill="#F8F8F8" transform="translate(270,529)"/>
<path d="M0 0 C0.96035156 0.12117187 1.92070312 0.24234375 2.91015625 0.3671875 C15.2478466 1.88779063 27.61204825 2.97848257 40 4 C40 4.33 40 4.66 40 5 C26.8 5 13.6 5 0 5 C0 3.35 0 1.7 0 0 Z " fill="#F4F4F4" transform="translate(360,563)"/>
<path d="M0 0 C13.2 0 26.4 0 40 0 C40 0.33 40 0.66 40 1 C39.25016846 1.05534912 38.50033691 1.11069824 37.7277832 1.16772461 C34.25600705 1.4241126 30.78425347 1.68080507 27.3125 1.9375 C25.54422852 2.06801758 25.54422852 2.06801758 23.74023438 2.20117188 C15.82570799 2.78662999 7.91242364 3.38678098 0 4 C0 2.68 0 1.36 0 0 Z " fill="#EFEFEF" transform="translate(360,0)"/>
<path d="M0 0 C0 3.63 0 7.26 0 11 C-4.01221324 11.80244265 -5.98892255 12.07611488 -9.8125 11.5625 C-10.60269531 11.46066406 -11.39289062 11.35882813 -12.20703125 11.25390625 C-12.79871094 11.17011719 -13.39039063 11.08632813 -14 11 C-3.64705882 0 -3.64705882 0 0 0 Z " fill="#E2E2E2" transform="translate(600,499)"/>
<path d="M0 0 C1.37020997 4.11062991 1.06276637 7.66912062 1 12 C-2.3 12 -5.6 12 -9 12 C-6.2520787 7.72545575 -3.30749011 3.85873847 0 0 Z " fill="#E4E4E4" transform="translate(629,468)"/>
<path d="M0 0 C3.63 0 7.26 0 11 0 C11 0.99 11 1.98 11 3 C9.54462432 3.83848804 8.08559627 4.67063934 6.625 5.5 C5.40683594 6.19609375 5.40683594 6.19609375 4.1640625 6.90625 C2 8 2 8 0 8 C0 5.36 0 2.72 0 0 Z " fill="#F7F7F7" transform="translate(270,30)"/>
<path d="M0 0 C3.3 0 6.6 0 10 0 C10 2.31 10 4.62 10 7 C6.433255 7 5.89456323 6.36308045 3.3125 4.0625 C2.68988281 3.51722656 2.06726563 2.97195312 1.42578125 2.41015625 C0.95527344 1.94480469 0.48476563 1.47945312 0 1 C0 0.67 0 0.34 0 0 Z " fill="#E0E0E0" transform="translate(590,60)"/>
<path d="M0 0 C2.64 0 5.28 0 8 0 C8 2.97 8 5.94 8 9 C5.06799526 6.14723863 2.35684596 3.34920216 0 0 Z " fill="#DCDCDC" transform="translate(622,90)"/>
<path d="M0 0 C-1 3 -1 3 -3 4 C-4.54023996 4.06950541 -6.08334988 4.08452357 -7.625 4.0625 C-8.85089844 4.04896484 -8.85089844 4.04896484 -10.1015625 4.03515625 C-11.04128906 4.01775391 -11.04128906 4.01775391 -12 4 C-12 3.01 -12 2.02 -12 1 C-7.93631321 0.22596442 -4.13574827 -0.0984702 0 0 Z " fill="#D7D7D7" transform="translate(462,564)"/>
<path d="M0 0 C0.33 0 0.66 0 1 0 C1 8.25 1 16.5 1 25 C1.66 25 2.32 25 3 25 C2.34 26.98 1.68 28.96 1 31 C0.67 31 0.34 31 0 31 C0 20.77 0 10.54 0 0 Z " fill="#272D2E" transform="translate(443,219)"/>
<path d="M0 0 C1.03864166 3.11592499 1.09036928 4.0262656 0 7 C-0.99 7.495 -0.99 7.495 -2 8 C-2.66 7.67 -3.32 7.34 -4 7 C-4.33 8.32 -4.66 9.64 -5 11 C-5.66 10.67 -6.32 10.34 -7 10 C-5.33248852 6.05860922 -2.77289351 3.2107188 0 0 Z " fill="#D3D3D3" transform="translate(629,468)"/>
<path d="M0 0 C-0.33 1.32 -0.66 2.64 -1 4 C-4.63 3.67 -8.26 3.34 -12 3 C-7.09396701 -0.67952474 -5.82490317 -0.29124516 0 0 Z " fill="#D9D9D9" transform="translate(466,0)"/>
<path d="M0 0 C-0.33 0.99 -0.66 1.98 -1 3 C-7.0546875 3.9765625 -7.0546875 3.9765625 -9 4 C-9.66 3.34 -10.32 2.68 -11 2 C-9.73392393 1.46770674 -8.46189588 0.94955456 -7.1875 0.4375 C-6.47980469 0.14746094 -5.77210938 -0.14257812 -5.04296875 -0.44140625 C-3 -1 -3 -1 0 0 Z " fill="#D6D6D6" transform="translate(526,547)"/>
<path d="M0 0 C1.32 1.32 2.64 2.64 4 4 C3.67 4.99 3.34 5.98 3 7 C1.02 7.33 -0.96 7.66 -3 8 C-2.67 6.02 -2.34 4.04 -2 2 C-1.34 2 -0.68 2 0 2 C0 1.34 0 0.68 0 0 Z " fill="#DBDBDB" transform="translate(183,449)"/>
<path d="M0 0 C-0.66 1.65 -1.32 3.3 -2 5 C-4.31 5 -6.62 5 -9 5 C-4.5 0 -4.5 0 0 0 Z " fill="#D6D6D6" transform="translate(595,505)"/>
<path d="M0 0 C1.32 0.66 2.64 1.32 4 2 C3.67 3.65 3.34 5.3 3 7 C2.34 7 1.68 7 1 7 C1 6.01 1 5.02 1 4 C0.01 4 -0.98 4 -2 4 C-1.34 2.68 -0.68 1.36 0 0 Z " fill="#ECECEC" transform="translate(179,446)"/>
<path d="M0 0 C1.98 0 3.96 0 6 0 C5.34 1.32 4.68 2.64 4 4 C2.35 4 0.7 4 -1 4 C-0.67 2.68 -0.34 1.36 0 0 Z " fill="#E4E4E4" transform="translate(466,0)"/>
<path d="M0 0 C1.9375 0.3125 1.9375 0.3125 4 1 C4.33 1.99 4.66 2.98 5 4 C2.36 4 -0.28 4 -3 4 C-2.34 3.67 -1.68 3.34 -1 3 C-0.67 2.01 -0.34 1.02 0 0 Z " fill="#E4E4E4" transform="translate(462,564)"/>
<path d="M0 0 C0.99 0 1.98 0 3 0 C3.33 1.32 3.66 2.64 4 4 C1.69 5.32 -0.62 6.64 -3 8 C-2.5359375 7.13375 -2.5359375 7.13375 -2.0625 6.25 C-1.07416636 4.15705816 -0.4831387 2.25464725 0 0 Z " fill="#D5D5D5" transform="translate(243,51)"/>
<path d="M0 0 C1.65 0 3.3 0 5 0 C5.33 1.65 5.66 3.3 6 5 C4.02 4.34 2.04 3.68 0 3 C0 2.01 0 1.02 0 0 Z " fill="#D4D4D4" transform="translate(547,30)"/>
<path d="M0 0 C0.33 0 0.66 0 1 0 C1 1.98 1 3.96 1 6 C-0.65 6 -2.3 6 -4 6 C-3.34 4.68 -2.68 3.36 -2 2 C-1.34 2 -0.68 2 0 2 C0 1.34 0 0.68 0 0 Z " fill="#E4E4E4" transform="translate(479,562)"/>
<path d="M0 0 C1.65 0.33 3.3 0.66 5 1 C5 1.99 5 2.98 5 4 C4.01 4.495 4.01 4.495 3 5 C3 4.34 3 3.68 3 3 C1.68 2.67 0.36 2.34 -1 2 C-0.67 1.34 -0.34 0.68 0 0 Z " fill="#DBDBDB" transform="translate(257,522)"/>
</svg>
